<svg width="700" height="435" viewBox="0 0 700 435" fill="none" xmlns="http://www.w3.org/2000/svg">
<path d="M33.9763 34.9102V26.8021H36.4412L36.5223 28.375C36.7818 27.8021 37.1439 27.3696 37.6088 27.0777C38.0845 26.7858 38.6304 26.6399 39.2466 26.6399C39.8412 26.6399 40.3601 26.775 40.8034 27.0453C41.2574 27.3156 41.5926 27.7156 41.8088 28.2453C42.0574 27.7156 42.425 27.3156 42.9115 27.0453C43.4088 26.775 43.9493 26.6399 44.5331 26.6399C45.3331 26.6399 45.9926 26.8831 46.5115 27.3696C47.0412 27.8453 47.3061 28.5588 47.3061 29.5102V34.9102H44.5493V30.1426C44.5493 29.6237 44.4466 29.2615 44.2412 29.0561C44.0358 28.8507 43.7709 28.748 43.4466 28.748C43.0358 28.748 42.6953 28.9048 42.425 29.2183C42.1547 29.521 42.0196 29.975 42.0196 30.5804V34.9102H39.2628V30.1426C39.2628 29.6237 39.1601 29.2615 38.9547 29.0561C38.7493 28.8507 38.4845 28.748 38.1601 28.748C37.7818 28.748 37.4466 28.8939 37.1547 29.1858C36.8736 29.4777 36.7331 29.9588 36.7331 30.6291V34.9102H33.9763ZM53.7667 29.7696C53.7667 29.3912 53.6586 29.0939 53.4424 28.8777C53.237 28.6507 52.9559 28.5372 52.5991 28.5372C52.2424 28.5372 51.9343 28.6291 51.6748 28.8129C51.4262 28.9858 51.2532 29.2993 51.1559 29.7534L48.8208 29.2021C48.9721 28.4237 49.3721 27.8021 50.0208 27.3372C50.6694 26.8723 51.5829 26.6399 52.7613 26.6399C53.9505 26.6399 54.8694 26.9048 55.5181 27.4345C56.1775 27.9534 56.5072 28.7156 56.5072 29.721V32.6885C56.5072 33.1102 56.6964 33.321 57.0748 33.321C57.2694 33.321 57.4262 33.2993 57.5451 33.2561L57.3829 34.8291C57.0586 34.9804 56.664 35.0561 56.1991 35.0561C55.691 35.0561 55.2532 34.9588 54.8856 34.7642C54.5181 34.5588 54.2694 34.2507 54.1397 33.8399C53.9127 34.2615 53.5505 34.575 53.0532 34.7804C52.5667 34.975 52.0478 35.0723 51.4964 35.0723C50.664 35.0723 49.9991 34.8831 49.5018 34.5048C49.0154 34.1156 48.7721 33.5588 48.7721 32.8345C48.7721 32.2507 48.9451 31.7696 49.291 31.3912C49.6478 31.0021 50.2045 30.7318 50.9613 30.5804L53.7667 29.9966V29.7696ZM51.4964 32.575C51.4964 32.8129 51.5829 32.9912 51.7559 33.1102C51.9289 33.2291 52.1343 33.2885 52.3721 33.2885C52.7397 33.2885 53.064 33.1804 53.3451 32.9642C53.6262 32.7372 53.7667 32.3858 53.7667 31.9102V31.4561L52.4532 31.7318C52.1289 31.7966 51.8856 31.8939 51.7235 32.0237C51.5721 32.1426 51.4964 32.3264 51.4964 32.575ZM60.0116 25.8615C59.4494 25.8615 59.0386 25.7588 58.7792 25.5534C58.5305 25.3372 58.4062 25.0021 58.4062 24.548C58.4062 24.0831 58.5305 23.748 58.7792 23.5426C59.0386 23.3264 59.4494 23.2183 60.0116 23.2183C60.5629 23.2183 60.9683 23.3264 61.2278 23.5426C61.4873 23.748 61.617 24.0831 61.617 24.548C61.617 25.0021 61.4873 25.3372 61.2278 25.5534C60.9683 25.7588 60.5629 25.8615 60.0116 25.8615ZM61.39 26.8021V34.9102H58.6332V26.8021H61.39ZM63.3524 34.9102V26.8021H65.8172L65.8983 28.4399C66.147 27.8453 66.5091 27.3966 66.9848 27.0939C67.4605 26.7912 68.0226 26.6399 68.6713 26.6399C69.5037 26.6399 70.1794 26.8831 70.6983 27.3696C71.2172 27.8561 71.4767 28.5696 71.4767 29.5102V34.9102H68.7199V30.2399C68.7199 29.6777 68.6118 29.2885 68.3956 29.0723C68.1794 28.8561 67.9037 28.748 67.5686 28.748C67.1686 28.748 66.8226 28.8885 66.5308 29.1696C66.2497 29.4507 66.1091 29.9318 66.1091 30.6129V34.9102H63.3524Z" fill="black"/>
<rect x="51.3518" y="52.2617" width="2.7027" height="382.432" fill="#EFEFF1"/>
<path d="M141.616 34.9102V23.0723H142.914V28.0183C143.195 27.5318 143.568 27.1804 144.033 26.9642C144.497 26.748 145.005 26.6399 145.557 26.6399C146.141 26.6399 146.67 26.7534 147.146 26.9804C147.622 27.1966 148 27.5318 148.281 27.9858C148.573 28.4399 148.719 29.0183 148.719 29.721V34.9102H147.422V30.175C147.422 29.2777 147.227 28.6561 146.838 28.3102C146.46 27.9534 145.989 27.775 145.427 27.775C145.038 27.775 144.649 27.8669 144.26 28.0507C143.87 28.2345 143.546 28.5372 143.287 28.9588C143.038 29.3696 142.914 29.921 142.914 30.6129V34.9102H141.616ZM155.013 26.6399C155.781 26.6399 156.456 26.8075 157.04 27.1426C157.635 27.4777 158.1 27.9642 158.435 28.6021C158.77 29.2291 158.937 29.9804 158.937 30.8561C158.937 31.7318 158.77 32.4885 158.435 33.1264C158.1 33.7534 157.635 34.2345 157.04 34.5696C156.456 34.9048 155.781 35.0723 155.013 35.0723C154.256 35.0723 153.581 34.9048 152.986 34.5696C152.392 34.2345 151.927 33.7534 151.592 33.1264C151.256 32.4885 151.089 31.7318 151.089 30.8561C151.089 29.9804 151.256 29.2291 151.592 28.6021C151.927 27.9642 152.392 27.4777 152.986 27.1426C153.581 26.8075 154.256 26.6399 155.013 26.6399ZM155.013 27.7588C154.192 27.7588 153.548 28.0345 153.083 28.5858C152.619 29.1372 152.386 29.8939 152.386 30.8561C152.386 31.8183 152.619 32.575 153.083 33.1264C153.548 33.6777 154.192 33.9534 155.013 33.9534C155.835 33.9534 156.478 33.6777 156.943 33.1264C157.408 32.575 157.64 31.8183 157.64 30.8561C157.64 29.8939 157.408 29.1372 156.943 28.5858C156.478 28.0345 155.835 27.7588 155.013 27.7588ZM166.102 26.8021V27.921H163.151V32.6723C163.151 33.0723 163.264 33.3696 163.491 33.5642C163.718 33.7588 164.01 33.8561 164.367 33.8561C164.681 33.8561 164.951 33.802 165.178 33.6939C165.405 33.5858 165.61 33.4399 165.794 33.2561L166.248 34.3426C165.999 34.5696 165.702 34.748 165.356 34.8777C165.021 35.0075 164.632 35.0723 164.189 35.0723C163.778 35.0723 163.394 35.002 163.037 34.8615C162.681 34.7102 162.394 34.4777 162.178 34.1642C161.972 33.8399 161.864 33.4183 161.853 32.8993V27.921H160.232V26.8021H161.853V24.8561L163.151 24.4994V26.8021H166.102ZM172.352 26.8021V27.921H169.644V34.9102H168.347V27.921H166.725V26.8021H168.347V25.4399C168.347 24.7156 168.568 24.1264 169.012 23.6723C169.455 23.2183 170.12 22.9912 171.006 22.9912C171.287 22.9912 171.552 23.0237 171.801 23.0885C172.049 23.1534 172.244 23.2453 172.385 23.3642L172.044 24.4183C171.785 24.2561 171.476 24.175 171.12 24.175C170.655 24.175 170.293 24.2885 170.033 24.5156C169.774 24.7318 169.644 25.0831 169.644 25.5696V26.8021H172.352ZM174.736 25.2453C174.444 25.2453 174.206 25.1588 174.022 24.9858C173.849 24.8021 173.763 24.5642 173.763 24.2723C173.763 23.9804 173.849 23.748 174.022 23.575C174.206 23.3912 174.444 23.2994 174.736 23.2994C175.028 23.2994 175.26 23.3912 175.433 23.575C175.617 23.748 175.709 23.9804 175.709 24.2723C175.709 24.5642 175.617 24.8021 175.433 24.9858C175.26 25.1588 175.028 25.2453 174.736 25.2453ZM175.385 26.8021V34.9102H174.087V26.8021H175.385ZM179.182 26.8021L181.323 29.8021L183.431 26.8021H184.955L182.02 30.775L185.004 34.9102H183.414L181.177 31.7804L178.874 34.9102H177.366L180.479 30.8237L177.56 26.8021H179.182ZM190.123 35.0723C189.355 35.0723 188.669 34.9048 188.063 34.5696C187.469 34.2345 187.004 33.7534 186.669 33.1264C186.333 32.4885 186.166 31.7318 186.166 30.8561C186.166 29.9804 186.333 29.2291 186.669 28.6021C187.004 27.9642 187.463 27.4777 188.047 27.1426C188.631 26.8075 189.296 26.6399 190.042 26.6399C190.798 26.6399 191.442 26.8021 191.971 27.1264C192.512 27.4507 192.923 27.8939 193.204 28.4561C193.485 29.0075 193.625 29.6291 193.625 30.321C193.625 30.5048 193.62 30.6723 193.609 30.8237C193.598 30.975 193.582 31.1102 193.56 31.2291H187.447C187.512 32.0831 187.777 32.748 188.242 33.2237C188.706 33.6993 189.323 33.9372 190.09 33.9372C190.685 33.9372 191.166 33.8237 191.533 33.5966C191.912 33.3696 192.215 33.0615 192.442 32.6723L193.463 33.2723C193.16 33.8237 192.723 34.2615 192.15 34.5858C191.587 34.9102 190.912 35.0723 190.123 35.0723ZM190.009 27.775C189.328 27.775 188.766 27.9804 188.323 28.3912C187.89 28.7912 187.615 29.3534 187.496 30.0777H192.328C192.296 29.3426 192.069 28.775 191.647 28.375C191.225 27.975 190.679 27.775 190.009 27.775ZM199.012 35.0723C198.222 35.0723 197.493 34.9048 196.822 34.5696C196.163 34.2345 195.655 33.7588 195.298 33.1426L196.401 32.348C196.639 32.8453 196.984 33.2345 197.439 33.5156C197.903 33.7966 198.46 33.9372 199.109 33.9372C199.682 33.9372 200.13 33.8291 200.455 33.6129C200.779 33.3858 200.941 33.0939 200.941 32.7372C200.941 32.5102 200.866 32.3048 200.714 32.121C200.574 31.9264 200.298 31.7858 199.887 31.6993L197.941 31.2939C197.152 31.1318 196.584 30.8615 196.239 30.4831C195.903 30.1048 195.736 29.6345 195.736 29.0723C195.736 28.6291 195.86 28.2237 196.109 27.8561C196.368 27.4885 196.73 27.1966 197.195 26.9804C197.671 26.7534 198.228 26.6399 198.866 26.6399C199.666 26.6399 200.341 26.7966 200.893 27.1102C201.444 27.4237 201.855 27.8669 202.125 28.4399L201.039 29.1534C200.855 28.6777 200.557 28.3318 200.147 28.1156C199.736 27.8885 199.309 27.775 198.866 27.775C198.282 27.775 197.828 27.8939 197.503 28.1318C197.179 28.3696 197.017 28.6669 197.017 29.0237C197.017 29.2615 197.098 29.4831 197.26 29.6885C197.422 29.8831 197.725 30.0237 198.168 30.1102L200.195 30.5318C200.952 30.6831 201.482 30.9318 201.784 31.2777C202.087 31.6237 202.239 32.0453 202.239 32.5426C202.239 33.3102 201.941 33.9264 201.347 34.3912C200.752 34.8453 199.974 35.0723 199.012 35.0723Z" fill="black"/>
<rect x="170.271" y="52.2617" width="2.7027" height="382.432" fill="#EFEFF1"/>
<path d="M263.481 15.9102V7.80205H264.535L264.713 9.13178C265.167 8.13719 266.032 7.63989 267.308 7.63989C267.448 7.63989 267.599 7.6507 267.762 7.67232C267.935 7.69395 268.081 7.73719 268.199 7.80205L267.972 8.98584C267.853 8.94259 267.724 8.91016 267.583 8.88854C267.443 8.86692 267.243 8.85611 266.983 8.85611C266.648 8.85611 266.308 8.9534 265.962 9.148C265.626 9.34259 265.345 9.63989 265.118 10.0399C264.891 10.4291 264.778 10.9264 264.778 11.5318V15.9102H263.481ZM273.236 16.0723C272.468 16.0723 271.782 15.9048 271.176 15.5696C270.582 15.2345 270.117 14.7534 269.782 14.1264C269.447 13.4885 269.279 12.7318 269.279 11.8561C269.279 10.9804 269.447 10.2291 269.782 9.60205C270.117 8.96422 270.576 8.47773 271.16 8.14259C271.744 7.80746 272.409 7.63989 273.155 7.63989C273.912 7.63989 274.555 7.80205 275.084 8.12638C275.625 8.4507 276.036 8.89395 276.317 9.45611C276.598 10.0075 276.739 10.6291 276.739 11.321C276.739 11.5048 276.733 11.6723 276.722 11.8237C276.712 11.975 276.695 12.1102 276.674 12.2291H270.56C270.625 13.0831 270.89 13.748 271.355 14.2237C271.82 14.6993 272.436 14.9372 273.203 14.9372C273.798 14.9372 274.279 14.8237 274.647 14.5966C275.025 14.3696 275.328 14.0615 275.555 13.6723L276.576 14.2723C276.274 14.8237 275.836 15.2615 275.263 15.5858C274.701 15.9102 274.025 16.0723 273.236 16.0723ZM273.122 8.77503C272.441 8.77503 271.879 8.98043 271.436 9.39124C271.003 9.79124 270.728 10.3534 270.609 11.0777H275.441C275.409 10.3426 275.182 9.77503 274.76 9.37503C274.339 8.97503 273.793 8.77503 273.122 8.77503ZM280.438 4.07233V13.8507C280.438 14.2615 280.514 14.548 280.665 14.7102C280.817 14.8615 281.06 14.9372 281.395 14.9372C281.611 14.9372 281.79 14.921 281.93 14.8885C282.071 14.8561 282.26 14.7966 282.498 14.7102L282.287 15.8453C281.93 15.9966 281.53 16.0723 281.087 16.0723C279.79 16.0723 279.141 15.348 279.141 13.8993V4.07233H280.438ZM287.552 16.0723C286.784 16.0723 286.098 15.9048 285.492 15.5696C284.898 15.2345 284.433 14.7534 284.098 14.1264C283.763 13.4885 283.595 12.7318 283.595 11.8561C283.595 10.9804 283.763 10.2291 284.098 9.60205C284.433 8.96422 284.892 8.47773 285.476 8.14259C286.06 7.80746 286.725 7.63989 287.471 7.63989C288.227 7.63989 288.871 7.80205 289.4 8.12638C289.941 8.4507 290.352 8.89395 290.633 9.45611C290.914 10.0075 291.054 10.6291 291.054 11.321C291.054 11.5048 291.049 11.6723 291.038 11.8237C291.027 11.975 291.011 12.1102 290.99 12.2291H284.876C284.941 13.0831 285.206 13.748 285.671 14.2237C286.135 14.6993 286.752 14.9372 287.519 14.9372C288.114 14.9372 288.595 14.8237 288.963 14.5966C289.341 14.3696 289.644 14.0615 289.871 13.6723L290.892 14.2723C290.59 14.8237 290.152 15.2615 289.579 15.5858C289.017 15.9102 288.341 16.0723 287.552 16.0723ZM287.438 8.77503C286.757 8.77503 286.195 8.98043 285.752 9.39124C285.319 9.79124 285.044 10.3534 284.925 11.0777H289.757C289.725 10.3426 289.498 9.77503 289.076 9.37503C288.654 8.97503 288.108 8.77503 287.438 8.77503ZM298.257 10.6723C298.257 10.0669 298.095 9.60205 297.77 9.27773C297.446 8.94259 296.987 8.77503 296.392 8.77503C295.83 8.77503 295.354 8.89935 294.965 9.148C294.576 9.38584 294.289 9.77503 294.105 10.3156L293.051 9.66692C293.268 9.06151 293.668 8.57503 294.251 8.20746C294.835 7.82908 295.56 7.63989 296.424 7.63989C297.008 7.63989 297.538 7.74259 298.014 7.948C298.489 8.14259 298.862 8.4453 299.132 8.85611C299.414 9.25611 299.554 9.77503 299.554 10.4129V14.3372C299.554 14.7264 299.759 14.921 300.17 14.921C300.376 14.921 300.576 14.8939 300.77 14.8399L300.705 15.8615C300.489 15.9696 300.208 16.0237 299.862 16.0237C299.462 16.0237 299.116 15.9264 298.824 15.7318C298.543 15.5372 298.359 15.2399 298.273 14.8399C297.992 15.2615 297.608 15.575 297.122 15.7804C296.635 15.975 296.154 16.0723 295.678 16.0723C295.203 16.0723 294.76 15.9912 294.349 15.8291C293.938 15.6669 293.608 15.4237 293.36 15.0993C293.122 14.7642 293.003 14.3534 293.003 13.8669C293.003 13.2615 293.203 12.7642 293.603 12.375C294.014 11.975 294.581 11.7048 295.305 11.5642L298.257 10.9804V10.6723ZM294.332 13.802C294.332 14.1372 294.462 14.4129 294.722 14.6291C294.992 14.8345 295.37 14.9372 295.857 14.9372C296.278 14.9372 296.668 14.8669 297.024 14.7264C297.392 14.575 297.689 14.3534 297.916 14.0615C298.143 13.7588 298.257 13.375 298.257 12.9102V12.0507L295.905 12.5372C295.376 12.6453 294.981 12.7966 294.722 12.9912C294.462 13.1858 294.332 13.4561 294.332 13.802ZM305.626 16.0723C304.836 16.0723 304.107 15.9048 303.436 15.5696C302.777 15.2345 302.269 14.7588 301.912 14.1426L303.015 13.348C303.253 13.8453 303.599 14.2345 304.053 14.5156C304.517 14.7966 305.074 14.9372 305.723 14.9372C306.296 14.9372 306.744 14.8291 307.069 14.6129C307.393 14.3858 307.555 14.0939 307.555 13.7372C307.555 13.5102 307.48 13.3048 307.328 13.121C307.188 12.9264 306.912 12.7858 306.501 12.6993L304.555 12.2939C303.766 12.1318 303.199 11.8615 302.853 11.4831C302.517 11.1048 302.35 10.6345 302.35 10.0723C302.35 9.62908 302.474 9.22367 302.723 8.85611C302.982 8.48854 303.344 8.19665 303.809 7.98043C304.285 7.75341 304.842 7.63989 305.48 7.63989C306.28 7.63989 306.955 7.79665 307.507 8.11016C308.058 8.42368 308.469 8.86692 308.739 9.43989L307.653 10.1534C307.469 9.67773 307.171 9.33178 306.761 9.11557C306.35 8.88854 305.923 8.77503 305.48 8.77503C304.896 8.77503 304.442 8.89395 304.117 9.13178C303.793 9.36962 303.631 9.66692 303.631 10.0237C303.631 10.2615 303.712 10.4831 303.874 10.6885C304.036 10.8831 304.339 11.0237 304.782 11.1102L306.809 11.5318C307.566 11.6831 308.096 11.9318 308.399 12.2777C308.701 12.6237 308.853 13.0453 308.853 13.5426C308.853 14.3102 308.555 14.9264 307.961 15.3912C307.366 15.8453 306.588 16.0723 305.626 16.0723ZM314.647 16.0723C313.88 16.0723 313.193 15.9048 312.588 15.5696C311.993 15.2345 311.528 14.7534 311.193 14.1264C310.858 13.4885 310.691 12.7318 310.691 11.8561C310.691 10.9804 310.858 10.2291 311.193 9.60205C311.528 8.96422 311.988 8.47773 312.572 8.14259C313.155 7.80746 313.82 7.63989 314.566 7.63989C315.323 7.63989 315.966 7.80205 316.496 8.12638C317.037 8.4507 317.447 8.89395 317.728 9.45611C318.009 10.0075 318.15 10.6291 318.15 11.321C318.15 11.5048 318.145 11.6723 318.134 11.8237C318.123 11.975 318.107 12.1102 318.085 12.2291H311.972C312.037 13.0831 312.301 13.748 312.766 14.2237C313.231 14.6993 313.847 14.9372 314.615 14.9372C315.209 14.9372 315.691 14.8237 316.058 14.5966C316.437 14.3696 316.739 14.0615 316.966 13.6723L317.988 14.2723C317.685 14.8237 317.247 15.2615 316.674 15.5858C316.112 15.9102 315.437 16.0723 314.647 16.0723ZM314.534 8.77503C313.853 8.77503 313.291 8.98043 312.847 9.39124C312.415 9.79124 312.139 10.3534 312.02 11.0777H316.853C316.82 10.3426 316.593 9.77503 316.172 9.37503C315.75 8.97503 315.204 8.77503 314.534 8.77503ZM268.57 35.0723C267.954 35.0723 267.402 34.9264 266.916 34.6345C266.429 34.3426 266.062 33.9588 265.813 33.4831L265.732 34.9102H264.597V23.0723H265.894V28.0669C266.154 27.6453 266.516 27.3048 266.981 27.0453C267.456 26.775 267.992 26.6399 268.586 26.6399C269.256 26.6399 269.873 26.8075 270.435 27.1426C270.997 27.4777 271.446 27.9588 271.781 28.5858C272.116 29.2129 272.283 29.9696 272.283 30.8561C272.283 31.7318 272.11 32.4885 271.765 33.1264C271.429 33.7534 270.981 34.2345 270.419 34.5696C269.856 34.9048 269.24 35.0723 268.57 35.0723ZM268.44 33.9372C269.24 33.9372 269.862 33.6561 270.305 33.0939C270.759 32.5318 270.986 31.7858 270.986 30.8561C270.986 29.9264 270.765 29.1804 270.321 28.6183C269.878 28.0561 269.256 27.775 268.456 27.775C267.7 27.775 267.083 28.0615 266.608 28.6345C266.132 29.2075 265.894 29.9588 265.894 30.8885C265.894 31.8183 266.127 32.5588 266.592 33.1102C267.067 33.6615 267.683 33.9372 268.44 33.9372ZM274.764 34.9102V26.8021H275.818L275.996 28.1318C276.45 27.1372 277.315 26.6399 278.591 26.6399C278.731 26.6399 278.883 26.6507 279.045 26.6723C279.218 26.6939 279.364 26.7372 279.483 26.8021L279.256 27.9858C279.137 27.9426 279.007 27.9102 278.866 27.8885C278.726 27.8669 278.526 27.8561 278.266 27.8561C277.931 27.8561 277.591 27.9534 277.245 28.148C276.91 28.3426 276.629 28.6399 276.402 29.0399C276.175 29.4291 276.061 29.9264 276.061 30.5318V34.9102H274.764ZM285.897 29.6723C285.897 29.0669 285.735 28.6021 285.41 28.2777C285.086 27.9426 284.626 27.775 284.032 27.775C283.47 27.775 282.994 27.8994 282.605 28.148C282.216 28.3858 281.929 28.775 281.745 29.3156L280.691 28.6669C280.908 28.0615 281.308 27.575 281.891 27.2075C282.475 26.8291 283.199 26.6399 284.064 26.6399C284.648 26.6399 285.178 26.7426 285.653 26.948C286.129 27.1426 286.502 27.4453 286.772 27.8561C287.053 28.2561 287.194 28.775 287.194 29.4129V33.3372C287.194 33.7264 287.399 33.921 287.81 33.921C288.016 33.921 288.216 33.8939 288.41 33.8399L288.345 34.8615C288.129 34.9696 287.848 35.0237 287.502 35.0237C287.102 35.0237 286.756 34.9264 286.464 34.7318C286.183 34.5372 285.999 34.2399 285.913 33.8399C285.632 34.2615 285.248 34.575 284.762 34.7804C284.275 34.975 283.794 35.0723 283.318 35.0723C282.843 35.0723 282.399 34.9912 281.989 34.8291C281.578 34.6669 281.248 34.4237 280.999 34.0993C280.762 33.7642 280.643 33.3534 280.643 32.8669C280.643 32.2615 280.843 31.7642 281.243 31.375C281.653 30.975 282.221 30.7048 282.945 30.5642L285.897 29.9804V29.6723ZM281.972 32.802C281.972 33.1372 282.102 33.4129 282.362 33.6291C282.632 33.8345 283.01 33.9372 283.497 33.9372C283.918 33.9372 284.308 33.8669 284.664 33.7264C285.032 33.575 285.329 33.3534 285.556 33.0615C285.783 32.7588 285.897 32.375 285.897 31.9102V31.0507L283.545 31.5372C283.016 31.6453 282.621 31.7966 282.362 31.9912C282.102 32.1858 281.972 32.4561 281.972 32.802ZM290.347 34.9102V26.8021H291.482L291.563 28.0669C291.844 27.5588 292.228 27.1966 292.714 26.9804C293.201 26.7534 293.725 26.6399 294.287 26.6399C294.871 26.6399 295.401 26.7534 295.876 26.9804C296.352 27.1966 296.73 27.5318 297.011 27.9858C297.303 28.4399 297.449 29.0183 297.449 29.721V34.9102H296.152V30.175C296.152 29.2777 295.957 28.6561 295.568 28.3102C295.19 27.9534 294.719 27.775 294.157 27.775C293.768 27.775 293.379 27.8669 292.99 28.0507C292.601 28.2345 292.276 28.5318 292.017 28.9426C291.768 29.3534 291.644 29.9048 291.644 30.5966V34.9102H290.347ZM303.743 26.6399C304.576 26.6399 305.268 26.8345 305.819 27.2237C306.37 27.6021 306.797 28.1264 307.1 28.7966L305.868 29.3804C305.695 28.8615 305.43 28.4669 305.073 28.1966C304.727 27.9156 304.273 27.775 303.711 27.775C302.9 27.775 302.262 28.0507 301.797 28.6021C301.343 29.1426 301.116 29.8939 301.116 30.8561C301.116 31.8183 301.343 32.575 301.797 33.1264C302.262 33.6669 302.9 33.9372 303.711 33.9372C304.349 33.9372 304.857 33.7912 305.235 33.4993C305.614 33.2075 305.862 32.7966 305.981 32.2669L307.181 32.6885C306.911 33.4345 306.484 34.0183 305.9 34.4399C305.327 34.8615 304.608 35.0723 303.743 35.0723C302.987 35.0723 302.311 34.9048 301.716 34.5696C301.122 34.2345 300.657 33.7534 300.322 33.1264C299.987 32.4885 299.819 31.7318 299.819 30.8561C299.819 29.9804 299.987 29.2291 300.322 28.6021C300.657 27.9642 301.122 27.4777 301.716 27.1426C302.311 26.8075 302.987 26.6399 303.743 26.6399ZM309.461 34.9102V23.0723H310.758V28.0183C311.039 27.5318 311.412 27.1804 311.877 26.9642C312.342 26.748 312.85 26.6399 313.401 26.6399C313.985 26.6399 314.515 26.7534 314.99 26.9804C315.466 27.1966 315.845 27.5318 316.126 27.9858C316.417 28.4399 316.563 29.0183 316.563 29.721V34.9102H315.266V30.175C315.266 29.2777 315.072 28.6561 314.682 28.3102C314.304 27.9534 313.834 27.775 313.272 27.775C312.882 27.775 312.493 27.8669 312.104 28.0507C311.715 28.2345 311.39 28.5372 311.131 28.9588C310.882 29.3696 310.758 29.921 310.758 30.6129V34.9102H309.461Z" fill="black"/>
<rect x="289.189" y="52.2617" width="2.7027" height="382.432" fill="#EFEFF1"/>
<path d="M382.022 35.0723C381.016 35.0723 380.205 34.7048 379.589 33.9696C378.984 33.2345 378.681 32.2075 378.681 30.8885C378.681 29.9804 378.822 29.2129 379.103 28.5858C379.395 27.948 379.795 27.4669 380.303 27.1426C380.822 26.8075 381.416 26.6399 382.086 26.6399C382.659 26.6399 383.146 26.7804 383.546 27.0615C383.957 27.3426 384.265 27.7156 384.47 28.1804V23.3642H387.227V34.9102H384.762L384.665 33.321C384.438 33.8615 384.092 34.2885 383.627 34.602C383.173 34.9156 382.638 35.0723 382.022 35.0723ZM382.978 33.0453C383.432 33.0453 383.795 32.8561 384.065 32.4777C384.335 32.0993 384.47 31.5426 384.47 30.8075C384.47 30.1264 384.341 29.6021 384.081 29.2345C383.822 28.8561 383.459 28.6669 382.995 28.6669C382.519 28.6669 382.141 28.8453 381.859 29.2021C381.589 29.548 381.454 30.0993 381.454 30.8561C381.454 31.6129 381.589 32.1696 381.859 32.5264C382.13 32.8723 382.503 33.0453 382.978 33.0453ZM393.161 35.0723C391.81 35.0723 390.74 34.7048 389.951 33.9696C389.172 33.2345 388.783 32.1966 388.783 30.8561C388.783 29.9696 388.961 29.2129 389.318 28.5858C389.686 27.948 390.183 27.4669 390.81 27.1426C391.448 26.8075 392.188 26.6399 393.032 26.6399C393.886 26.6399 394.61 26.8075 395.205 27.1426C395.81 27.4669 396.269 27.921 396.583 28.5048C396.897 29.0777 397.053 29.7372 397.053 30.4831C397.053 30.6885 397.042 30.8885 397.021 31.0831C397.01 31.2669 396.999 31.4237 396.988 31.5534H391.459C391.534 32.1156 391.718 32.521 392.01 32.7696C392.302 33.0075 392.686 33.1264 393.161 33.1264C393.572 33.1264 393.897 33.0453 394.134 32.8831C394.383 32.721 394.567 32.4939 394.686 32.2021L396.891 32.9318C396.74 33.3966 396.475 33.7912 396.097 34.1156C395.729 34.4291 395.286 34.6669 394.767 34.8291C394.259 34.9912 393.724 35.0723 393.161 35.0723ZM393.032 28.5696C392.156 28.5696 391.637 29.0723 391.475 30.0777H394.442C394.324 29.0723 393.853 28.5696 393.032 28.5696ZM403.612 26.8021H406.466L403.547 34.9102H400.256L397.337 26.8021H400.239L401.91 32.9804L403.612 26.8021ZM411.246 35.0723C409.895 35.0723 408.825 34.7048 408.035 33.9696C407.257 33.2345 406.868 32.1966 406.868 30.8561C406.868 29.9696 407.046 29.2129 407.403 28.5858C407.771 27.948 408.268 27.4669 408.895 27.1426C409.533 26.8075 410.273 26.6399 411.117 26.6399C411.971 26.6399 412.695 26.8075 413.289 27.1426C413.895 27.4669 414.354 27.921 414.668 28.5048C414.981 29.0777 415.138 29.7372 415.138 30.4831C415.138 30.6885 415.127 30.8885 415.106 31.0831C415.095 31.2669 415.084 31.4237 415.073 31.5534H409.544C409.619 32.1156 409.803 32.521 410.095 32.7696C410.387 33.0075 410.771 33.1264 411.246 33.1264C411.657 33.1264 411.981 33.0453 412.219 32.8831C412.468 32.721 412.652 32.4939 412.771 32.2021L414.976 32.9318C414.825 33.3966 414.56 33.7912 414.181 34.1156C413.814 34.4291 413.371 34.6669 412.852 34.8291C412.344 34.9912 411.808 35.0723 411.246 35.0723ZM411.117 28.5696C410.241 28.5696 409.722 29.0723 409.56 30.0777H412.527C412.408 29.0723 411.938 28.5696 411.117 28.5696ZM419.405 23.3642V32.1534C419.405 32.5102 419.464 32.7642 419.583 32.9156C419.702 33.0669 419.902 33.1426 420.183 33.1426C420.345 33.1426 420.48 33.1318 420.588 33.1102C420.697 33.0885 420.826 33.0561 420.978 33.0129L420.799 34.6669C420.605 34.7858 420.351 34.8831 420.037 34.9588C419.724 35.0345 419.415 35.0723 419.113 35.0723C418.248 35.0723 417.621 34.8723 417.232 34.4723C416.842 34.0723 416.648 33.4183 416.648 32.5102V23.3642H419.405ZM425.845 26.6399C426.699 26.6399 427.445 26.8075 428.083 27.1426C428.731 27.4777 429.234 27.9588 429.591 28.5858C429.958 29.2129 430.142 29.9696 430.142 30.8561C430.142 31.7426 429.958 32.4993 429.591 33.1264C429.234 33.7534 428.731 34.2345 428.083 34.5696C427.445 34.9048 426.699 35.0723 425.845 35.0723C425.002 35.0723 424.256 34.9048 423.607 34.5696C422.969 34.2345 422.467 33.7534 422.099 33.1264C421.742 32.4993 421.564 31.7426 421.564 30.8561C421.564 29.9696 421.742 29.2129 422.099 28.5858C422.467 27.9588 422.969 27.4777 423.607 27.1426C424.256 26.8075 425.002 26.6399 425.845 26.6399ZM425.845 28.6021C425.369 28.6021 424.996 28.7804 424.726 29.1372C424.467 29.4831 424.337 30.0561 424.337 30.8561C424.337 31.6453 424.467 32.2183 424.726 32.575C424.996 32.9318 425.369 33.1102 425.845 33.1102C426.331 33.1102 426.704 32.9318 426.964 32.575C427.234 32.2183 427.369 31.6453 427.369 30.8561C427.369 30.0561 427.234 29.4831 426.964 29.1372C426.704 28.7804 426.331 28.6021 425.845 28.6021ZM431.693 38.3156V26.8021H434.174L434.255 28.4399C434.482 27.8994 434.823 27.4669 435.277 27.1426C435.742 26.8075 436.288 26.6399 436.915 26.6399C437.909 26.6399 438.709 27.0075 439.315 27.7426C439.931 28.4777 440.239 29.5048 440.239 30.8237C440.239 32.1642 439.925 33.2075 439.298 33.9534C438.682 34.6993 437.877 35.0723 436.882 35.0723C436.298 35.0723 435.801 34.9318 435.39 34.6507C434.979 34.3588 434.666 33.9804 434.45 33.5156V38.3156H431.693ZM435.942 33.0453C436.417 33.0453 436.79 32.8723 437.061 32.5264C437.331 32.1696 437.466 31.6129 437.466 30.8561C437.466 30.0993 437.331 29.548 437.061 29.2021C436.801 28.8453 436.434 28.6669 435.958 28.6669C435.493 28.6669 435.125 28.8561 434.855 29.2345C434.585 29.6021 434.45 30.1426 434.45 30.8561C434.45 31.5372 434.579 32.0723 434.839 32.4615C435.098 32.8507 435.466 33.0453 435.942 33.0453Z" fill="black"/>
<rect x="408.108" y="52.2617" width="2.7027" height="382.432" fill="#EFEFF1"/>
<path d="M506.075 7.80205V8.92097H503.367V15.9102H502.069V8.92097H500.448V7.80205H502.069V6.43989C502.069 5.71557 502.291 5.12638 502.734 4.67233C503.177 4.21827 503.842 3.99125 504.729 3.99125C505.01 3.99125 505.275 4.02368 505.523 4.08854C505.772 4.15341 505.967 4.2453 506.107 4.36422L505.767 5.41827C505.507 5.25611 505.199 5.17503 504.842 5.17503C504.377 5.17503 504.015 5.28854 503.756 5.51557C503.496 5.73179 503.367 6.08314 503.367 6.56962V7.80205H506.075ZM510.971 16.0723C510.203 16.0723 509.516 15.9048 508.911 15.5696C508.316 15.2345 507.852 14.7534 507.516 14.1264C507.181 13.4885 507.014 12.7318 507.014 11.8561C507.014 10.9804 507.181 10.2291 507.516 9.60205C507.852 8.96422 508.311 8.47773 508.895 8.14259C509.479 7.80746 510.144 7.63989 510.889 7.63989C511.646 7.63989 512.289 7.80205 512.819 8.12638C513.36 8.4507 513.771 8.89395 514.052 9.45611C514.333 10.0075 514.473 10.6291 514.473 11.321C514.473 11.5048 514.468 11.6723 514.457 11.8237C514.446 11.975 514.43 12.1102 514.408 12.2291H508.295C508.36 13.0831 508.625 13.748 509.089 14.2237C509.554 14.6993 510.171 14.9372 510.938 14.9372C511.533 14.9372 512.014 14.8237 512.381 14.5966C512.76 14.3696 513.062 14.0615 513.289 13.6723L514.311 14.2723C514.008 14.8237 513.571 15.2615 512.998 15.5858C512.435 15.9102 511.76 16.0723 510.971 16.0723ZM510.857 8.77503C510.176 8.77503 509.614 8.98043 509.171 9.39124C508.738 9.79124 508.462 10.3534 508.344 11.0777H513.176C513.144 10.3426 512.916 9.77503 512.495 9.37503C512.073 8.97503 511.527 8.77503 510.857 8.77503ZM521.676 10.6723C521.676 10.0669 521.513 9.60205 521.189 9.27773C520.865 8.94259 520.405 8.77503 519.811 8.77503C519.249 8.77503 518.773 8.89935 518.384 9.148C517.995 9.38584 517.708 9.77503 517.524 10.3156L516.47 9.66692C516.686 9.06151 517.086 8.57503 517.67 8.20746C518.254 7.82908 518.978 7.63989 519.843 7.63989C520.427 7.63989 520.957 7.74259 521.432 7.948C521.908 8.14259 522.281 8.4453 522.551 8.85611C522.832 9.25611 522.973 9.77503 522.973 10.4129V14.3372C522.973 14.7264 523.178 14.921 523.589 14.921C523.795 14.921 523.995 14.8939 524.189 14.8399L524.124 15.8615C523.908 15.9696 523.627 16.0237 523.281 16.0237C522.881 16.0237 522.535 15.9264 522.243 15.7318C521.962 15.5372 521.778 15.2399 521.692 14.8399C521.411 15.2615 521.027 15.575 520.541 15.7804C520.054 15.975 519.573 16.0723 519.097 16.0723C518.622 16.0723 518.178 15.9912 517.768 15.8291C517.357 15.6669 517.027 15.4237 516.778 15.0993C516.541 14.7642 516.422 14.3534 516.422 13.8669C516.422 13.2615 516.622 12.7642 517.022 12.375C517.432 11.975 518 11.7048 518.724 11.5642L521.676 10.9804V10.6723ZM517.751 13.802C517.751 14.1372 517.881 14.4129 518.141 14.6291C518.411 14.8345 518.789 14.9372 519.276 14.9372C519.697 14.9372 520.086 14.8669 520.443 14.7264C520.811 14.575 521.108 14.3534 521.335 14.0615C521.562 13.7588 521.676 13.375 521.676 12.9102V12.0507L519.324 12.5372C518.795 12.6453 518.4 12.7966 518.141 12.9912C517.881 13.1858 517.751 13.4561 517.751 13.802ZM530.674 7.80205V8.92097H527.722V13.6723C527.722 14.0723 527.836 14.3696 528.063 14.5642C528.29 14.7588 528.582 14.8561 528.938 14.8561C529.252 14.8561 529.522 14.802 529.749 14.6939C529.976 14.5858 530.182 14.4399 530.366 14.2561L530.82 15.3426C530.571 15.5696 530.274 15.748 529.928 15.8777C529.593 16.0075 529.203 16.0723 528.76 16.0723C528.349 16.0723 527.966 16.002 527.609 15.8615C527.252 15.7102 526.966 15.4777 526.749 15.1642C526.544 14.8399 526.436 14.4183 526.425 13.8993V8.92097H524.803V7.80205H526.425V5.85611L527.722 5.49935V7.80205H530.674ZM535.538 16.0723C535.019 16.0723 534.527 15.975 534.062 15.7804C533.608 15.5858 533.235 15.2723 532.943 14.8399C532.662 14.3966 532.521 13.8237 532.521 13.121V7.80205H533.819V12.7804C533.819 13.602 533.997 14.1696 534.354 14.4831C534.711 14.7858 535.213 14.9372 535.862 14.9372C536.273 14.9372 536.662 14.8453 537.029 14.6615C537.397 14.4669 537.7 14.1696 537.938 13.7696C538.175 13.3696 538.294 12.8507 538.294 12.2129V7.80205H539.592V15.9102H538.456L538.375 14.6777C538.094 15.1642 537.711 15.521 537.224 15.748C536.748 15.9642 536.186 16.0723 535.538 16.0723ZM542.611 15.9102V7.80205H543.665L543.843 9.13178C544.297 8.13719 545.162 7.63989 546.438 7.63989C546.578 7.63989 546.73 7.6507 546.892 7.67232C547.065 7.69395 547.211 7.73719 547.33 7.80205L547.103 8.98584C546.984 8.94259 546.854 8.91016 546.714 8.88854C546.573 8.86692 546.373 8.85611 546.114 8.85611C545.778 8.85611 545.438 8.9534 545.092 9.148C544.757 9.34259 544.476 9.63989 544.249 10.0399C544.022 10.4291 543.908 10.9264 543.908 11.5318V15.9102H542.611ZM552.366 16.0723C551.599 16.0723 550.912 15.9048 550.307 15.5696C549.712 15.2345 549.247 14.7534 548.912 14.1264C548.577 13.4885 548.409 12.7318 548.409 11.8561C548.409 10.9804 548.577 10.2291 548.912 9.60205C549.247 8.96422 549.707 8.47773 550.291 8.14259C550.874 7.80746 551.539 7.63989 552.285 7.63989C553.042 7.63989 553.685 7.80205 554.215 8.12638C554.755 8.4507 555.166 8.89395 555.447 9.45611C555.728 10.0075 555.869 10.6291 555.869 11.321C555.869 11.5048 555.863 11.6723 555.853 11.8237C555.842 11.975 555.826 12.1102 555.804 12.2291H549.691C549.755 13.0831 550.02 13.748 550.485 14.2237C550.95 14.6993 551.566 14.9372 552.334 14.9372C552.928 14.9372 553.409 14.8237 553.777 14.5966C554.155 14.3696 554.458 14.0615 554.685 13.6723L555.707 14.2723C555.404 14.8237 554.966 15.2615 554.393 15.5858C553.831 15.9102 553.155 16.0723 552.366 16.0723ZM552.253 8.77503C551.572 8.77503 551.009 8.98043 550.566 9.39124C550.134 9.79124 549.858 10.3534 549.739 11.0777H554.572C554.539 10.3426 554.312 9.77503 553.891 9.37503C553.469 8.97503 552.923 8.77503 552.253 8.77503ZM506.408 35.0723C505.791 35.0723 505.24 34.9264 504.754 34.6345C504.267 34.3426 503.899 33.9588 503.651 33.4831L503.57 34.9102H502.435V23.0723H503.732V28.0669C503.991 27.6453 504.354 27.3048 504.818 27.0453C505.294 26.775 505.829 26.6399 506.424 26.6399C507.094 26.6399 507.71 26.8075 508.272 27.1426C508.835 27.4777 509.283 27.9588 509.618 28.5858C509.954 29.2129 510.121 29.9696 510.121 30.8561C510.121 31.7318 509.948 32.4885 509.602 33.1264C509.267 33.7534 508.818 34.2345 508.256 34.5696C507.694 34.9048 507.078 35.0723 506.408 35.0723ZM506.278 33.9372C507.078 33.9372 507.699 33.6561 508.143 33.0939C508.597 32.5318 508.824 31.7858 508.824 30.8561C508.824 29.9264 508.602 29.1804 508.159 28.6183C507.716 28.0561 507.094 27.775 506.294 27.775C505.537 27.775 504.921 28.0615 504.445 28.6345C503.97 29.2075 503.732 29.9588 503.732 30.8885C503.732 31.8183 503.964 32.5588 504.429 33.1102C504.905 33.6615 505.521 33.9372 506.278 33.9372ZM512.601 34.9102V26.8021H513.655L513.834 28.1318C514.288 27.1372 515.153 26.6399 516.428 26.6399C516.569 26.6399 516.72 26.6507 516.882 26.6723C517.055 26.6939 517.201 26.7372 517.32 26.8021L517.093 27.9858C516.974 27.9426 516.845 27.9102 516.704 27.8885C516.564 27.8669 516.364 27.8561 516.104 27.8561C515.769 27.8561 515.428 27.9534 515.082 28.148C514.747 28.3426 514.466 28.6399 514.239 29.0399C514.012 29.4291 513.899 29.9264 513.899 30.5318V34.9102H512.601ZM523.734 29.6723C523.734 29.0669 523.572 28.6021 523.248 28.2777C522.924 27.9426 522.464 27.775 521.869 27.775C521.307 27.775 520.832 27.8994 520.442 28.148C520.053 28.3858 519.767 28.775 519.583 29.3156L518.529 28.6669C518.745 28.0615 519.145 27.575 519.729 27.2075C520.313 26.8291 521.037 26.6399 521.902 26.6399C522.486 26.6399 523.015 26.7426 523.491 26.948C523.967 27.1426 524.34 27.4453 524.61 27.8561C524.891 28.2561 525.032 28.775 525.032 29.4129V33.3372C525.032 33.7264 525.237 33.921 525.648 33.921C525.853 33.921 526.053 33.8939 526.248 33.8399L526.183 34.8615C525.967 34.9696 525.686 35.0237 525.34 35.0237C524.94 35.0237 524.594 34.9264 524.302 34.7318C524.021 34.5372 523.837 34.2399 523.751 33.8399C523.469 34.2615 523.086 34.575 522.599 34.7804C522.113 34.975 521.632 35.0723 521.156 35.0723C520.68 35.0723 520.237 34.9912 519.826 34.8291C519.415 34.6669 519.086 34.4237 518.837 34.0993C518.599 33.7642 518.48 33.3534 518.48 32.8669C518.48 32.2615 518.68 31.7642 519.08 31.375C519.491 30.975 520.059 30.7048 520.783 30.5642L523.734 29.9804V29.6723ZM519.81 32.802C519.81 33.1372 519.94 33.4129 520.199 33.6291C520.469 33.8345 520.848 33.9372 521.334 33.9372C521.756 33.9372 522.145 33.8669 522.502 33.7264C522.869 33.575 523.167 33.3534 523.394 33.0615C523.621 32.7588 523.734 32.375 523.734 31.9102V31.0507L521.383 31.5372C520.853 31.6453 520.459 31.7966 520.199 31.9912C519.94 32.1858 519.81 32.4561 519.81 32.802ZM528.184 34.9102V26.8021H529.319L529.4 28.0669C529.681 27.5588 530.065 27.1966 530.552 26.9804C531.038 26.7534 531.563 26.6399 532.125 26.6399C532.708 26.6399 533.238 26.7534 533.714 26.9804C534.19 27.1966 534.568 27.5318 534.849 27.9858C535.141 28.4399 535.287 29.0183 535.287 29.721V34.9102H533.99V30.175C533.99 29.2777 533.795 28.6561 533.406 28.3102C533.027 27.9534 532.557 27.775 531.995 27.775C531.606 27.775 531.217 27.8669 530.827 28.0507C530.438 28.2345 530.114 28.5318 529.854 28.9426C529.606 29.3534 529.481 29.9048 529.481 30.5966V34.9102H528.184ZM541.581 26.6399C542.413 26.6399 543.105 26.8345 543.657 27.2237C544.208 27.6021 544.635 28.1264 544.938 28.7966L543.705 29.3804C543.532 28.8615 543.268 28.4669 542.911 28.1966C542.565 27.9156 542.111 27.775 541.549 27.775C540.738 27.775 540.1 28.0507 539.635 28.6021C539.181 29.1426 538.954 29.8939 538.954 30.8561C538.954 31.8183 539.181 32.575 539.635 33.1264C540.1 33.6669 540.738 33.9372 541.549 33.9372C542.186 33.9372 542.695 33.7912 543.073 33.4993C543.451 33.2075 543.7 32.7966 543.819 32.2669L545.019 32.6885C544.749 33.4345 544.322 34.0183 543.738 34.4399C543.165 34.8615 542.446 35.0723 541.581 35.0723C540.824 35.0723 540.149 34.9048 539.554 34.5696C538.959 34.2345 538.495 33.7534 538.159 33.1264C537.824 32.4885 537.657 31.7318 537.657 30.8561C537.657 29.9804 537.824 29.2291 538.159 28.6021C538.495 27.9642 538.959 27.4777 539.554 27.1426C540.149 26.8075 540.824 26.6399 541.581 26.6399ZM547.298 34.9102V23.0723H548.596V28.0183C548.877 27.5318 549.25 27.1804 549.715 26.9642C550.179 26.748 550.688 26.6399 551.239 26.6399C551.823 26.6399 552.352 26.7534 552.828 26.9804C553.304 27.1966 553.682 27.5318 553.963 27.9858C554.255 28.4399 554.401 29.0183 554.401 29.721V34.9102H553.104V30.175C553.104 29.2777 552.909 28.6561 552.52 28.3102C552.142 27.9534 551.671 27.775 551.109 27.775C550.72 27.775 550.331 27.8669 549.942 28.0507C549.552 28.2345 549.228 28.5372 548.969 28.9588C548.72 29.3696 548.596 29.921 548.596 30.6129V34.9102H547.298Z" fill="black"/>
<rect x="527.027" y="52.2617" width="2.7027" height="382.432" fill="#EFEFF1"/>
<path d="M624.994 7.80205V8.92097H622.286V15.9102H620.988V8.92097H619.367V7.80205H620.988V6.43989C620.988 5.71557 621.21 5.12638 621.653 4.67233C622.096 4.21827 622.761 3.99125 623.648 3.99125C623.929 3.99125 624.194 4.02368 624.442 4.08854C624.691 4.15341 624.886 4.2453 625.026 4.36422L624.686 5.41827C624.426 5.25611 624.118 5.17503 623.761 5.17503C623.296 5.17503 622.934 5.28854 622.675 5.51557C622.415 5.73179 622.286 6.08314 622.286 6.56962V7.80205H624.994ZM629.889 16.0723C629.122 16.0723 628.435 15.9048 627.83 15.5696C627.235 15.2345 626.771 14.7534 626.435 14.1264C626.1 13.4885 625.933 12.7318 625.933 11.8561C625.933 10.9804 626.1 10.2291 626.435 9.60205C626.771 8.96422 627.23 8.47773 627.814 8.14259C628.398 7.80746 629.062 7.63989 629.808 7.63989C630.565 7.63989 631.208 7.80205 631.738 8.12638C632.279 8.4507 632.689 8.89395 632.971 9.45611C633.252 10.0075 633.392 10.6291 633.392 11.321C633.392 11.5048 633.387 11.6723 633.376 11.8237C633.365 11.975 633.349 12.1102 633.327 12.2291H627.214C627.279 13.0831 627.544 13.748 628.008 14.2237C628.473 14.6993 629.089 14.9372 629.857 14.9372C630.452 14.9372 630.933 14.8237 631.3 14.5966C631.679 14.3696 631.981 14.0615 632.208 13.6723L633.23 14.2723C632.927 14.8237 632.489 15.2615 631.917 15.5858C631.354 15.9102 630.679 16.0723 629.889 16.0723ZM629.776 8.77503C629.095 8.77503 628.533 8.98043 628.089 9.39124C627.657 9.79124 627.381 10.3534 627.262 11.0777H632.095C632.062 10.3426 631.835 9.77503 631.414 9.37503C630.992 8.97503 630.446 8.77503 629.776 8.77503ZM640.595 10.6723C640.595 10.0669 640.432 9.60205 640.108 9.27773C639.784 8.94259 639.324 8.77503 638.73 8.77503C638.168 8.77503 637.692 8.89935 637.303 9.148C636.914 9.38584 636.627 9.77503 636.443 10.3156L635.389 9.66692C635.605 9.06151 636.005 8.57503 636.589 8.20746C637.173 7.82908 637.897 7.63989 638.762 7.63989C639.346 7.63989 639.876 7.74259 640.351 7.948C640.827 8.14259 641.2 8.4453 641.47 8.85611C641.751 9.25611 641.892 9.77503 641.892 10.4129V14.3372C641.892 14.7264 642.097 14.921 642.508 14.921C642.714 14.921 642.914 14.8939 643.108 14.8399L643.043 15.8615C642.827 15.9696 642.546 16.0237 642.2 16.0237C641.8 16.0237 641.454 15.9264 641.162 15.7318C640.881 15.5372 640.697 15.2399 640.611 14.8399C640.33 15.2615 639.946 15.575 639.459 15.7804C638.973 15.975 638.492 16.0723 638.016 16.0723C637.541 16.0723 637.097 15.9912 636.686 15.8291C636.276 15.6669 635.946 15.4237 635.697 15.0993C635.459 14.7642 635.341 14.3534 635.341 13.8669C635.341 13.2615 635.541 12.7642 635.941 12.375C636.351 11.975 636.919 11.7048 637.643 11.5642L640.595 10.9804V10.6723ZM636.67 13.802C636.67 14.1372 636.8 14.4129 637.059 14.6291C637.33 14.8345 637.708 14.9372 638.195 14.9372C638.616 14.9372 639.005 14.8669 639.362 14.7264C639.73 14.575 640.027 14.3534 640.254 14.0615C640.481 13.7588 640.595 13.375 640.595 12.9102V12.0507L638.243 12.5372C637.714 12.6453 637.319 12.7966 637.059 12.9912C636.8 13.1858 636.67 13.4561 636.67 13.802ZM649.593 7.80205V8.92097H646.641V13.6723C646.641 14.0723 646.755 14.3696 646.982 14.5642C647.209 14.7588 647.501 14.8561 647.857 14.8561C648.171 14.8561 648.441 14.802 648.668 14.6939C648.895 14.5858 649.101 14.4399 649.284 14.2561L649.738 15.3426C649.49 15.5696 649.193 15.748 648.847 15.8777C648.511 16.0075 648.122 16.0723 647.679 16.0723C647.268 16.0723 646.884 16.002 646.528 15.8615C646.171 15.7102 645.884 15.4777 645.668 15.1642C645.463 14.8399 645.355 14.4183 645.344 13.8993V8.92097H643.722V7.80205H645.344V5.85611L646.641 5.49935V7.80205H649.593ZM654.457 16.0723C653.938 16.0723 653.446 15.975 652.981 15.7804C652.527 15.5858 652.154 15.2723 651.862 14.8399C651.581 14.3966 651.44 13.8237 651.44 13.121V7.80205H652.738V12.7804C652.738 13.602 652.916 14.1696 653.273 14.4831C653.63 14.7858 654.132 14.9372 654.781 14.9372C655.192 14.9372 655.581 14.8453 655.948 14.6615C656.316 14.4669 656.619 14.1696 656.857 13.7696C657.094 13.3696 657.213 12.8507 657.213 12.2129V7.80205H658.511V15.9102H657.375L657.294 14.6777C657.013 15.1642 656.629 15.521 656.143 15.748C655.667 15.9642 655.105 16.0723 654.457 16.0723ZM661.53 15.9102V7.80205H662.584L662.762 9.13178C663.216 8.13719 664.081 7.63989 665.357 7.63989C665.497 7.63989 665.649 7.6507 665.811 7.67232C665.984 7.69395 666.13 7.73719 666.249 7.80205L666.022 8.98584C665.903 8.94259 665.773 8.91016 665.633 8.88854C665.492 8.86692 665.292 8.85611 665.033 8.85611C664.697 8.85611 664.357 8.9534 664.011 9.148C663.676 9.34259 663.395 9.63989 663.168 10.0399C662.941 10.4291 662.827 10.9264 662.827 11.5318V15.9102H661.53ZM671.285 16.0723C670.518 16.0723 669.831 15.9048 669.226 15.5696C668.631 15.2345 668.166 14.7534 667.831 14.1264C667.496 13.4885 667.328 12.7318 667.328 11.8561C667.328 10.9804 667.496 10.2291 667.831 9.60205C668.166 8.96422 668.626 8.47773 669.209 8.14259C669.793 7.80746 670.458 7.63989 671.204 7.63989C671.961 7.63989 672.604 7.80205 673.134 8.12638C673.674 8.4507 674.085 8.89395 674.366 9.45611C674.647 10.0075 674.788 10.6291 674.788 11.321C674.788 11.5048 674.782 11.6723 674.772 11.8237C674.761 11.975 674.745 12.1102 674.723 12.2291H668.609C668.674 13.0831 668.939 13.748 669.404 14.2237C669.869 14.6993 670.485 14.9372 671.253 14.9372C671.847 14.9372 672.328 14.8237 672.696 14.5966C673.074 14.3696 673.377 14.0615 673.604 13.6723L674.626 14.2723C674.323 14.8237 673.885 15.2615 673.312 15.5858C672.75 15.9102 672.074 16.0723 671.285 16.0723ZM671.172 8.77503C670.491 8.77503 669.928 8.98043 669.485 9.39124C669.053 9.79124 668.777 10.3534 668.658 11.0777H673.491C673.458 10.3426 673.231 9.77503 672.809 9.37503C672.388 8.97503 671.842 8.77503 671.172 8.77503ZM625.327 35.0723C624.71 35.0723 624.159 34.9264 623.672 34.6345C623.186 34.3426 622.818 33.9588 622.57 33.4831L622.489 34.9102H621.354V23.0723H622.651V28.0669C622.91 27.6453 623.272 27.3048 623.737 27.0453C624.213 26.775 624.748 26.6399 625.343 26.6399C626.013 26.6399 626.629 26.8075 627.191 27.1426C627.754 27.4777 628.202 27.9588 628.537 28.5858C628.872 29.2129 629.04 29.9696 629.04 30.8561C629.04 31.7318 628.867 32.4885 628.521 33.1264C628.186 33.7534 627.737 34.2345 627.175 34.5696C626.613 34.9048 625.997 35.0723 625.327 35.0723ZM625.197 33.9372C625.997 33.9372 626.618 33.6561 627.062 33.0939C627.516 32.5318 627.743 31.7858 627.743 30.8561C627.743 29.9264 627.521 29.1804 627.078 28.6183C626.635 28.0561 626.013 27.775 625.213 27.775C624.456 27.775 623.84 28.0615 623.364 28.6345C622.889 29.2075 622.651 29.9588 622.651 30.8885C622.651 31.8183 622.883 32.5588 623.348 33.1102C623.824 33.6615 624.44 33.9372 625.197 33.9372ZM631.52 34.9102V26.8021H632.574L632.753 28.1318C633.207 27.1372 634.072 26.6399 635.347 26.6399C635.488 26.6399 635.639 26.6507 635.801 26.6723C635.974 26.6939 636.12 26.7372 636.239 26.8021L636.012 27.9858C635.893 27.9426 635.764 27.9102 635.623 27.8885C635.483 27.8669 635.283 27.8561 635.023 27.8561C634.688 27.8561 634.347 27.9534 634.001 28.148C633.666 28.3426 633.385 28.6399 633.158 29.0399C632.931 29.4291 632.818 29.9264 632.818 30.5318V34.9102H631.52ZM642.653 29.6723C642.653 29.0669 642.491 28.6021 642.167 28.2777C641.842 27.9426 641.383 27.775 640.788 27.775C640.226 27.775 639.751 27.8994 639.361 28.148C638.972 28.3858 638.686 28.775 638.502 29.3156L637.448 28.6669C637.664 28.0615 638.064 27.575 638.648 27.2075C639.232 26.8291 639.956 26.6399 640.821 26.6399C641.405 26.6399 641.934 26.7426 642.41 26.948C642.886 27.1426 643.259 27.4453 643.529 27.8561C643.81 28.2561 643.951 28.775 643.951 29.4129V33.3372C643.951 33.7264 644.156 33.921 644.567 33.921C644.772 33.921 644.972 33.8939 645.167 33.8399L645.102 34.8615C644.886 34.9696 644.605 35.0237 644.259 35.0237C643.859 35.0237 643.513 34.9264 643.221 34.7318C642.94 34.5372 642.756 34.2399 642.67 33.8399C642.388 34.2615 642.005 34.575 641.518 34.7804C641.032 34.975 640.551 35.0723 640.075 35.0723C639.599 35.0723 639.156 34.9912 638.745 34.8291C638.334 34.6669 638.005 34.4237 637.756 34.0993C637.518 33.7642 637.399 33.3534 637.399 32.8669C637.399 32.2615 637.599 31.7642 637.999 31.375C638.41 30.975 638.978 30.7048 639.702 30.5642L642.653 29.9804V29.6723ZM638.729 32.802C638.729 33.1372 638.859 33.4129 639.118 33.6291C639.388 33.8345 639.767 33.9372 640.253 33.9372C640.675 33.9372 641.064 33.8669 641.421 33.7264C641.788 33.575 642.086 33.3534 642.313 33.0615C642.54 32.7588 642.653 32.375 642.653 31.9102V31.0507L640.302 31.5372C639.772 31.6453 639.378 31.7966 639.118 31.9912C638.859 32.1858 638.729 32.4561 638.729 32.802ZM647.103 34.9102V26.8021H648.238L648.319 28.0669C648.6 27.5588 648.984 27.1966 649.471 26.9804C649.957 26.7534 650.481 26.6399 651.044 26.6399C651.627 26.6399 652.157 26.7534 652.633 26.9804C653.109 27.1966 653.487 27.5318 653.768 27.9858C654.06 28.4399 654.206 29.0183 654.206 29.721V34.9102H652.909V30.175C652.909 29.2777 652.714 28.6561 652.325 28.3102C651.946 27.9534 651.476 27.775 650.914 27.775C650.525 27.775 650.136 27.8669 649.746 28.0507C649.357 28.2345 649.033 28.5318 648.773 28.9426C648.525 29.3534 648.4 29.9048 648.4 30.5966V34.9102H647.103ZM660.5 26.6399C661.332 26.6399 662.024 26.8345 662.576 27.2237C663.127 27.6021 663.554 28.1264 663.857 28.7966L662.624 29.3804C662.451 28.8615 662.186 28.4669 661.83 28.1966C661.484 27.9156 661.03 27.775 660.468 27.775C659.657 27.775 659.019 28.0507 658.554 28.6021C658.1 29.1426 657.873 29.8939 657.873 30.8561C657.873 31.8183 658.1 32.575 658.554 33.1264C659.019 33.6669 659.657 33.9372 660.468 33.9372C661.105 33.9372 661.613 33.7912 661.992 33.4993C662.37 33.2075 662.619 32.7966 662.738 32.2669L663.938 32.6885C663.668 33.4345 663.241 34.0183 662.657 34.4399C662.084 34.8615 661.365 35.0723 660.5 35.0723C659.743 35.0723 659.068 34.9048 658.473 34.5696C657.878 34.2345 657.413 33.7534 657.078 33.1264C656.743 32.4885 656.576 31.7318 656.576 30.8561C656.576 29.9804 656.743 29.2291 657.078 28.6021C657.413 27.9642 657.878 27.4777 658.473 27.1426C659.068 26.8075 659.743 26.6399 660.5 26.6399ZM666.217 34.9102V23.0723H667.515V28.0183C667.796 27.5318 668.169 27.1804 668.634 26.9642C669.098 26.748 669.607 26.6399 670.158 26.6399C670.742 26.6399 671.271 26.7534 671.747 26.9804C672.223 27.1966 672.601 27.5318 672.882 27.9858C673.174 28.4399 673.32 29.0183 673.32 29.721V34.9102H672.023V30.175C672.023 29.2777 671.828 28.6561 671.439 28.3102C671.061 27.9534 670.59 27.775 670.028 27.775C669.639 27.775 669.25 27.8669 668.861 28.0507C668.471 28.2345 668.147 28.5372 667.888 28.9588C667.639 29.3696 667.515 29.921 667.515 30.6129V34.9102H666.217Z" fill="black"/>
<rect x="645.946" y="52.2617" width="2.7027" height="382.432" fill="#EFEFF1"/>
<path d="M52.5222 173.478C52.7861 173.742 53.2139 173.742 53.4778 173.478L57.7777 169.178C58.0416 168.914 58.0416 168.486 57.7777 168.222C57.5139 167.958 57.0861 167.958 56.8222 168.222L53 172.044L49.1778 168.222C48.9139 167.958 48.4861 167.958 48.2223 168.222C47.9584 168.486 47.9584 168.914 48.2223 169.178L52.5222 173.478ZM52.3243 81L52.3243 173L53.6757 173L53.6757 81L52.3243 81Z" fill="black"/>
<path d="M165.11 161.667C165.479 161.606 165.728 161.258 165.667 160.89L164.672 154.89C164.611 154.522 164.263 154.273 163.895 154.334C163.527 154.395 163.278 154.743 163.339 155.111L164.223 160.444L158.89 161.328C158.522 161.389 158.273 161.737 158.334 162.105C158.395 162.473 158.743 162.722 159.111 162.661L165.11 161.667ZM52.3106 81.1872L164.607 161.549L165.393 160.451L53.0971 80.0882L52.3106 81.1872Z" fill="black"/>
<path d="M60.2748 180.455C60.0483 180.751 60.1052 181.175 60.4018 181.402L65.2353 185.092C65.5319 185.318 65.956 185.262 66.1824 184.965C66.4088 184.668 66.352 184.244 66.0554 184.018L61.7589 180.738L65.039 176.441C65.2654 176.145 65.2086 175.721 64.9119 175.494C64.6153 175.268 64.1913 175.325 63.9649 175.621L60.2748 180.455ZM171.533 165.33L60.722 180.195L60.9017 181.535L171.712 166.67L171.533 165.33Z" fill="black"/>
<path d="M401.809 97.3518C402.084 97.0994 402.102 96.672 401.85 96.3971L397.737 91.9179C397.484 91.643 397.057 91.6248 396.782 91.8772C396.507 92.1296 396.489 92.557 396.741 92.8319L400.397 96.8134L396.416 100.469C396.141 100.722 396.123 101.149 396.375 101.424C396.627 101.699 397.055 101.717 397.33 101.465L401.809 97.3518ZM52.6748 82.6643L401.323 97.5292L401.381 96.179L52.7324 81.3142L52.6748 82.6643Z" fill="black"/>
<path d="M401.811 175.361C402.085 175.107 402.101 174.68 401.848 174.406L397.717 169.943C397.464 169.669 397.036 169.653 396.762 169.906C396.488 170.16 396.472 170.587 396.725 170.861L400.397 174.828L396.43 178.5C396.156 178.753 396.14 179.181 396.393 179.455C396.647 179.728 397.074 179.745 397.348 179.491L401.811 175.361ZM171.974 166.675L401.326 175.54L401.378 174.19L172.026 165.325L171.974 166.675Z" fill="black"/>
<path d="M639.638 150.063C639.916 149.816 639.942 149.388 639.694 149.11L635.654 144.564C635.406 144.286 634.979 144.26 634.7 144.508C634.421 144.756 634.396 145.183 634.644 145.462L638.235 149.502L634.195 153.093C633.916 153.341 633.891 153.768 634.139 154.047C634.387 154.326 634.814 154.351 635.093 154.103L639.638 150.063ZM409.419 136.719L639.149 150.233L639.228 148.884L409.499 135.37L409.419 136.719Z" fill="black"/>
<path d="M520.647 158.227C520.957 158.019 521.039 157.599 520.83 157.289L517.433 152.245C517.225 151.936 516.805 151.854 516.496 152.062C516.186 152.271 516.104 152.691 516.313 153L519.332 157.484L514.849 160.503C514.539 160.711 514.457 161.131 514.666 161.441C514.874 161.75 515.294 161.832 515.603 161.624L520.647 158.227ZM409.33 136.708L520.14 158.33L520.399 157.003L409.589 135.382L409.33 136.708Z" fill="black"/>
<path d="M417.035 212.656C416.805 212.95 416.857 213.374 417.151 213.604L421.94 217.352C422.233 217.582 422.658 217.53 422.888 217.236C423.118 216.942 423.066 216.518 422.772 216.288L418.516 212.956L421.847 208.7C422.077 208.406 422.025 207.981 421.731 207.751C421.437 207.521 421.013 207.573 420.783 207.867L417.035 212.656ZM528.296 198.888L417.485 212.401L417.649 213.743L528.46 200.229L528.296 198.888Z" fill="black"/>
<path d="M298.116 227.521C297.886 227.815 297.938 228.239 298.232 228.469L303.021 232.217C303.315 232.447 303.739 232.395 303.969 232.102C304.199 231.808 304.148 231.383 303.854 231.153L299.597 227.822L302.928 223.565C303.158 223.271 303.106 222.846 302.813 222.616C302.519 222.386 302.094 222.438 301.864 222.732L298.116 227.521ZM409.377 213.753L298.567 227.267L298.73 228.608L409.541 215.095L409.377 213.753Z" fill="black"/>
<path d="M298.116 374.818C297.886 375.112 297.938 375.536 298.232 375.766L303.021 379.514C303.315 379.744 303.739 379.692 303.969 379.398C304.199 379.105 304.148 378.68 303.854 378.45L299.597 375.119L302.928 370.862C303.158 370.568 303.106 370.143 302.813 369.913C302.519 369.683 302.094 369.735 301.864 370.029L298.116 374.818ZM409.377 361.05L298.567 374.563L298.73 375.905L409.541 362.391L409.377 361.05Z" fill="black"/>
<path d="M401.883 281.576C402.113 281.869 402.061 282.294 401.767 282.524L396.979 286.272C396.685 286.502 396.26 286.45 396.03 286.156C395.8 285.862 395.852 285.438 396.146 285.208L400.402 281.876L397.071 277.62C396.841 277.326 396.893 276.901 397.187 276.671C397.481 276.441 397.905 276.493 398.135 276.787L401.883 281.576ZM290.622 267.808L401.433 281.321L401.269 282.663L290.458 269.149L290.622 267.808Z" fill="black"/>
<path d="M401.883 320.764C402.113 321.058 402.061 321.483 401.767 321.713L396.979 325.46C396.685 325.69 396.26 325.639 396.03 325.345C395.8 325.051 395.852 324.626 396.146 324.396L400.402 321.065L397.071 316.808C396.841 316.514 396.893 316.09 397.187 315.86C397.481 315.63 397.905 315.681 398.135 315.975L401.883 320.764ZM290.622 306.996L401.433 320.51L401.269 321.851L290.458 308.338L290.622 306.996Z" fill="black"/>
<path d="M60.278 336.981C60.0485 337.276 60.1009 337.7 60.3951 337.93L65.1898 341.67C65.4841 341.9 65.9086 341.847 66.1382 341.553C66.3677 341.259 66.3153 340.834 66.021 340.605L61.7591 337.28L65.0838 333.018C65.3134 332.724 65.2609 332.299 64.9667 332.069C64.6725 331.84 64.2479 331.892 64.0184 332.187L60.278 336.981ZM290.457 308.348L60.7279 336.726L60.8936 338.067L290.623 309.689L290.457 308.348Z" fill="black"/>
<path d="M60.278 404.549C60.0485 404.843 60.1009 405.268 60.3951 405.497L65.1898 409.237C65.4841 409.467 65.9086 409.414 66.1382 409.12C66.3677 408.826 66.3153 408.401 66.021 408.172L61.7591 404.847L65.0838 400.585C65.3134 400.291 65.2609 399.866 64.9667 399.637C64.6725 399.407 64.2479 399.46 64.0184 399.754L60.278 404.549ZM290.457 375.915L60.7279 404.294L60.8936 405.635L290.623 377.257L290.457 375.915Z" fill="black"/>
<path d="M417.034 358.603C416.805 358.898 416.857 359.322 417.151 359.552L421.946 363.292C422.24 363.522 422.665 363.469 422.895 363.175C423.124 362.881 423.072 362.456 422.777 362.227L418.515 358.902L421.84 354.64C422.07 354.346 422.017 353.921 421.723 353.692C421.429 353.462 421.004 353.514 420.775 353.809L417.034 358.603ZM647.214 329.97L417.484 358.348L417.65 359.69L647.379 331.311L647.214 329.97Z" fill="black"/>
<path d="M408.983 128.412C409.247 128.676 409.674 128.676 409.938 128.412L414.238 124.112C414.502 123.849 414.502 123.421 414.238 123.157C413.974 122.893 413.547 122.893 413.283 123.157L409.46 126.979L405.638 123.157C405.374 122.893 404.947 122.893 404.683 123.157C404.419 123.421 404.419 123.849 404.683 124.112L408.983 128.412ZM408.785 96.8535V127.935H410.136V96.8535H408.785Z" fill="black"/>
<path d="M527.901 191.926C528.165 192.19 528.593 192.19 528.856 191.926L533.156 187.626C533.42 187.362 533.42 186.934 533.156 186.67C532.893 186.407 532.465 186.407 532.201 186.67L528.379 190.493L524.556 186.67C524.293 186.407 523.865 186.407 523.601 186.67C523.337 186.934 523.337 187.362 523.601 187.626L527.901 191.926ZM527.703 160.367V191.448H529.054V160.367H527.703Z" fill="black"/>
<path d="M646.82 183.819C647.083 184.082 647.511 184.082 647.775 183.819L652.075 179.519C652.339 179.255 652.339 178.827 652.075 178.563C651.811 178.299 651.383 178.299 651.12 178.563L647.297 182.385L643.475 178.563C643.211 178.299 642.783 178.299 642.52 178.563C642.256 178.827 642.256 179.255 642.52 179.519L646.82 183.819ZM646.622 152.26V183.341H647.973V152.26H646.622Z" fill="black"/>
<path d="M646.819 283.821C647.083 284.085 647.511 284.085 647.774 283.821L652.074 279.521C652.338 279.257 652.338 278.829 652.074 278.565C651.811 278.301 651.383 278.301 651.119 278.565L647.297 282.387L643.474 278.565C643.211 278.301 642.783 278.301 642.519 278.565C642.255 278.829 642.255 279.257 642.519 279.521L646.819 283.821ZM646.621 191.451L646.621 283.343L647.972 283.343L647.972 191.451L646.621 191.451Z" fill="black"/>
<path d="M646.82 323.007C647.083 323.271 647.511 323.271 647.775 323.007L652.075 318.707C652.339 318.443 652.339 318.015 652.075 317.752C651.811 317.488 651.383 317.488 651.12 317.752L647.297 321.574L643.475 317.752C643.211 317.488 642.783 317.488 642.52 317.752C642.256 318.015 642.256 318.443 642.52 318.707L646.82 323.007ZM646.622 291.448V322.529H647.973V291.448H646.622Z" fill="black"/>
<path d="M408.983 167.602C409.247 167.866 409.674 167.866 409.938 167.602L414.238 163.302C414.502 163.038 414.502 162.61 414.238 162.346C413.974 162.082 413.547 162.082 413.283 162.346L409.46 166.168L405.638 162.346C405.374 162.082 404.947 162.082 404.683 162.346C404.419 162.61 404.419 163.038 404.683 163.302L408.983 167.602ZM408.785 136.043V167.124H410.136V136.043H408.785Z" fill="black"/>
<path d="M408.983 206.791C409.247 207.055 409.674 207.055 409.938 206.791L414.238 202.491C414.502 202.227 414.502 201.8 414.238 201.536C413.974 201.272 413.547 201.272 413.283 201.536L409.46 205.358L405.638 201.536C405.374 201.272 404.947 201.272 404.683 201.536C404.419 201.8 404.419 202.227 404.683 202.491L408.983 206.791ZM408.785 175.232V206.313H410.136V175.232H408.785Z" fill="black"/>
<path d="M408.983 314.902C409.247 315.165 409.674 315.165 409.938 314.902L414.238 310.602C414.502 310.338 414.502 309.91 414.238 309.646C413.974 309.382 413.547 309.382 413.283 309.646L409.46 313.468L405.638 309.646C405.374 309.382 404.947 309.382 404.683 309.646C404.419 309.91 404.419 310.338 404.683 310.602L408.983 314.902ZM408.785 283.343V314.424H410.136V283.343H408.785Z" fill="black"/>
<path d="M408.983 354.091C409.247 354.355 409.674 354.355 409.938 354.091L414.238 349.791C414.502 349.527 414.502 349.099 414.238 348.836C413.974 348.572 413.547 348.572 413.283 348.836L409.46 352.658L405.638 348.836C405.374 348.572 404.947 348.572 404.683 348.836C404.419 349.099 404.419 349.527 404.683 349.791L408.983 354.091ZM408.785 322.532V353.613H410.136V322.532H408.785Z" fill="black"/>
<path d="M408.983 393.28C409.247 393.543 409.674 393.543 409.938 393.28L414.238 388.98C414.502 388.716 414.502 388.288 414.238 388.024C413.974 387.76 413.547 387.76 413.283 388.024L409.46 391.846L405.638 388.024C405.374 387.76 404.947 387.76 404.683 388.024C404.419 388.288 404.419 388.716 404.683 388.98L408.983 393.28ZM408.785 361.721V392.802H410.136V361.721H408.785Z" fill="black"/>
<path d="M408.981 275.712C409.245 275.976 409.673 275.976 409.937 275.712L414.237 271.412C414.501 271.149 414.501 270.721 414.237 270.457C413.973 270.193 413.545 270.193 413.281 270.457L409.459 274.279L405.637 270.457C405.373 270.193 404.945 270.193 404.681 270.457C404.417 270.721 404.417 271.149 404.681 271.412L408.981 275.712ZM408.783 214.424L408.783 275.235L410.135 275.235L410.135 214.424L408.783 214.424Z" fill="black"/>
<path d="M290.063 260.848C290.326 261.112 290.754 261.112 291.018 260.848L295.318 256.548C295.582 256.284 295.582 255.856 295.318 255.592C295.054 255.329 294.626 255.329 294.362 255.592L290.54 259.415L286.718 255.592C286.454 255.329 286.026 255.329 285.763 255.592C285.499 255.856 285.499 256.284 285.763 256.548L290.063 260.848ZM289.865 229.289V260.37H291.216V229.289H289.865Z" fill="black"/>
<path d="M290.063 300.037C290.326 300.301 290.754 300.301 291.018 300.037L295.318 295.737C295.582 295.474 295.582 295.046 295.318 294.782C295.054 294.518 294.626 294.518 294.362 294.782L290.54 298.604L286.718 294.782C286.454 294.518 286.026 294.518 285.763 294.782C285.499 295.046 285.499 295.474 285.763 295.737L290.063 300.037ZM289.865 268.479V299.56H291.216V268.479H289.865Z" fill="black"/>
<path d="M52.5222 331.478C52.7861 331.742 53.2139 331.742 53.4778 331.478L57.7778 327.178C58.0416 326.914 58.0416 326.486 57.7778 326.222C57.5139 325.958 57.0861 325.958 56.8222 326.222L53 330.044L49.1778 326.222C48.9139 325.958 48.4861 325.958 48.2223 326.222C47.9584 326.486 47.9584 326.914 48.2223 327.178L52.5222 331.478ZM52.3243 181L52.3243 331L53.6757 331L53.6757 181L52.3243 181Z" fill="black"/>
<path d="M52.2246 398.686C52.4885 398.95 52.9163 398.95 53.1802 398.686L57.4801 394.386C57.744 394.122 57.744 393.695 57.4801 393.431C57.2163 393.167 56.7885 393.167 56.5246 393.431L52.7024 397.253L48.8802 393.431C48.6163 393.167 48.1885 393.167 47.9246 393.431C47.6608 393.695 47.6608 394.122 47.9246 394.386L52.2246 398.686ZM52.0267 338.749L52.0267 398.208L53.3781 398.208L53.3781 338.749L52.0267 338.749Z" fill="black"/>
<path d="M441.846 202.691C442.397 202.624 442.87 202.697 443.266 202.911C443.661 203.117 443.986 203.43 444.24 203.849L443.471 204.334C443.315 204.005 443.108 203.765 442.85 203.615C442.599 203.456 442.287 203.4 441.915 203.445C441.378 203.509 440.978 203.743 440.715 204.145C440.457 204.539 440.367 205.055 440.444 205.691C440.521 206.328 440.732 206.811 441.077 207.14C441.428 207.46 441.872 207.588 442.408 207.523C442.83 207.472 443.155 207.335 443.382 207.111C443.609 206.888 443.741 206.596 443.777 206.236L444.605 206.419C444.486 206.934 444.25 207.355 443.897 207.68C443.552 208.005 443.093 208.202 442.521 208.272C442.02 208.332 441.559 208.275 441.139 208.101C440.718 207.927 440.372 207.646 440.1 207.258C439.827 206.862 439.656 206.375 439.586 205.795C439.516 205.216 439.566 204.705 439.738 204.263C439.909 203.814 440.178 203.455 440.544 203.186C440.911 202.916 441.345 202.751 441.846 202.691ZM447.851 201.964C448.359 201.903 448.82 201.96 449.233 202.135C449.653 202.309 450 202.594 450.273 202.989C450.545 203.377 450.716 203.861 450.786 204.441C450.856 205.02 450.806 205.534 450.635 205.983C450.463 206.425 450.194 206.781 449.828 207.05C449.468 207.319 449.034 207.484 448.526 207.545C448.025 207.606 447.565 207.549 447.144 207.375C446.724 207.201 446.378 206.919 446.106 206.531C445.833 206.136 445.662 205.648 445.591 205.069C445.521 204.489 445.572 203.979 445.744 203.537C445.914 203.088 446.183 202.729 446.55 202.459C446.917 202.19 447.35 202.025 447.851 201.964ZM447.941 202.705C447.397 202.771 446.993 203.005 446.73 203.407C446.466 203.809 446.373 204.328 446.45 204.965C446.527 205.602 446.741 206.084 447.093 206.412C447.445 206.739 447.893 206.87 448.437 206.805C448.98 206.739 449.384 206.505 449.648 206.103C449.911 205.701 450.004 205.181 449.927 204.544C449.85 203.908 449.636 203.425 449.284 203.098C448.932 202.77 448.485 202.639 447.941 202.705ZM454.833 206.782C454.389 206.836 453.968 206.774 453.569 206.598C453.17 206.421 452.835 206.138 452.563 205.75C452.29 205.355 452.118 204.867 452.048 204.288C451.976 203.694 452.033 203.175 452.219 202.732C452.405 202.288 452.678 201.936 453.039 201.674C453.398 201.406 453.8 201.245 454.244 201.191C454.63 201.144 454.984 201.192 455.306 201.335C455.628 201.47 455.878 201.679 456.057 201.963L455.654 198.625L456.512 198.521L457.46 206.356L456.709 206.447L456.533 205.444C456.427 205.827 456.217 206.136 455.905 206.37C455.591 206.596 455.234 206.734 454.833 206.782ZM454.828 206.021C455.336 205.959 455.721 205.72 455.983 205.304C456.251 204.887 456.347 204.352 456.268 203.701C456.193 203.086 455.982 202.625 455.632 202.319C455.282 202.006 454.864 201.878 454.377 201.937C453.834 202.003 453.434 202.24 453.178 202.648C452.923 203.057 452.832 203.569 452.907 204.184C452.981 204.799 453.188 205.275 453.526 205.612C453.864 205.948 454.298 206.085 454.828 206.021ZM461.712 205.95C461.204 206.012 460.736 205.956 460.309 205.782C459.888 205.608 459.542 205.327 459.27 204.939C458.997 204.544 458.826 204.056 458.756 203.477C458.686 202.897 458.736 202.386 458.908 201.945C459.079 201.496 459.344 201.137 459.703 200.868C460.063 200.6 460.489 200.436 460.983 200.376C461.484 200.315 461.923 200.371 462.299 200.543C462.683 200.715 462.99 200.975 463.221 201.325C463.452 201.667 463.594 202.067 463.65 202.525C463.664 202.647 463.674 202.758 463.679 202.859C463.684 202.96 463.684 203.051 463.68 203.131L459.633 203.621C459.745 204.181 459.973 204.6 460.319 204.877C460.665 205.155 461.092 205.263 461.6 205.202C461.993 205.154 462.302 205.04 462.527 204.861C462.76 204.68 462.935 204.452 463.055 204.176L463.779 204.492C463.623 204.881 463.368 205.206 463.015 205.466C462.668 205.726 462.234 205.887 461.712 205.95ZM461.053 201.13C460.602 201.184 460.246 201.365 459.986 201.673C459.732 201.972 459.594 202.366 459.573 202.855L462.772 202.468C462.691 201.984 462.496 201.627 462.185 201.396C461.874 201.165 461.496 201.076 461.053 201.13ZM469.308 204.923L468.659 199.556L469.356 199.472L469.581 200.338C469.802 199.643 470.334 199.245 471.179 199.143C471.272 199.131 471.373 199.126 471.482 199.128C471.598 199.128 471.698 199.145 471.782 199.179L471.727 199.98C471.644 199.961 471.556 199.95 471.461 199.947C471.366 199.944 471.233 199.953 471.061 199.973C470.84 200 470.622 200.092 470.409 200.248C470.202 200.404 470.04 200.623 469.922 200.906C469.803 201.182 469.768 201.52 469.816 201.921L470.167 204.819L469.308 204.923ZM475.777 204.249C475.269 204.31 474.802 204.254 474.374 204.081C473.954 203.907 473.608 203.626 473.336 203.238C473.063 202.842 472.891 202.355 472.821 201.775C472.751 201.196 472.802 200.685 472.973 200.243C473.144 199.794 473.409 199.435 473.769 199.167C474.128 198.898 474.555 198.734 475.049 198.674C475.55 198.614 475.988 198.67 476.365 198.842C476.749 199.013 477.056 199.274 477.287 199.623C477.517 199.966 477.66 200.366 477.715 200.824C477.73 200.946 477.74 201.057 477.745 201.158C477.75 201.259 477.75 201.35 477.745 201.43L473.699 201.92C473.81 202.48 474.039 202.898 474.384 203.176C474.73 203.454 475.157 203.562 475.665 203.5C476.059 203.453 476.368 203.339 476.593 203.159C476.825 202.979 477.001 202.751 477.12 202.475L477.844 202.79C477.688 203.179 477.433 203.504 477.08 203.765C476.734 204.024 476.3 204.186 475.777 204.249ZM475.118 199.428C474.667 199.483 474.312 199.664 474.051 199.971C473.797 200.271 473.66 200.665 473.639 201.154L476.837 200.767C476.757 200.283 476.561 199.925 476.25 199.694C475.939 199.463 475.562 199.375 475.118 199.428ZM482.472 197.885L483.374 197.776L481.791 203.413L480.932 203.517L478.05 198.42L479.027 198.302L481.267 202.594L482.472 197.885ZM484.8 196.558C484.607 196.582 484.443 196.544 484.307 196.444C484.178 196.336 484.102 196.186 484.079 195.992C484.055 195.799 484.094 195.638 484.194 195.51C484.301 195.374 484.451 195.294 484.645 195.271C484.838 195.247 484.999 195.289 485.128 195.397C485.264 195.497 485.343 195.643 485.366 195.837C485.39 196.03 485.348 196.195 485.241 196.331C485.14 196.459 484.994 196.535 484.8 196.558ZM485.354 197.537L486.003 202.903L485.145 203.007L484.496 197.641L485.354 197.537ZM490.252 202.498C489.744 202.56 489.276 202.504 488.848 202.33C488.428 202.156 488.082 201.875 487.81 201.487C487.537 201.091 487.366 200.604 487.295 200.024C487.225 199.445 487.276 198.934 487.448 198.492C487.618 198.043 487.884 197.685 488.243 197.416C488.603 197.148 489.029 196.983 489.523 196.924C490.024 196.863 490.463 196.919 490.839 197.091C491.223 197.263 491.53 197.523 491.761 197.873C491.991 198.215 492.134 198.615 492.19 199.073C492.204 199.195 492.214 199.306 492.219 199.407C492.224 199.508 492.224 199.599 492.219 199.679L488.173 200.169C488.284 200.729 488.513 201.148 488.859 201.425C489.205 201.703 489.631 201.811 490.139 201.749C490.533 201.702 490.842 201.588 491.067 201.409C491.3 201.228 491.475 201 491.594 200.724L492.319 201.039C492.162 201.429 491.908 201.753 491.554 202.014C491.208 202.274 490.774 202.435 490.252 202.498ZM489.592 197.678C489.142 197.732 488.786 197.913 488.526 198.22C488.271 198.52 488.134 198.914 488.113 199.403L491.312 199.016C491.231 198.532 491.036 198.175 490.724 197.944C490.413 197.713 490.036 197.624 489.592 197.678ZM500.144 195.748L501.1 195.632L499.881 201.224L499.023 201.328L496.993 197.24L496.082 201.684L495.223 201.788L492.707 196.647L493.662 196.532L495.543 200.737L496.474 196.192L497.332 196.088L499.32 200.28L500.144 195.748Z" fill="black"/>
<path d="M441.726 347.644C442.277 347.578 442.75 347.651 443.146 347.864C443.541 348.071 443.866 348.384 444.12 348.803L443.351 349.288C443.195 348.958 442.988 348.718 442.73 348.568C442.479 348.41 442.167 348.353 441.795 348.398C441.259 348.463 440.858 348.697 440.595 349.099C440.338 349.493 440.248 350.008 440.325 350.645C440.402 351.282 440.612 351.764 440.957 352.093C441.308 352.414 441.752 352.541 442.288 352.476C442.711 352.425 443.035 352.288 443.262 352.065C443.489 351.841 443.621 351.549 443.657 351.189L444.485 351.372C444.366 351.888 444.13 352.308 443.778 352.634C443.432 352.959 442.973 353.156 442.401 353.225C441.9 353.286 441.439 353.229 441.019 353.055C440.599 352.881 440.252 352.599 439.98 352.211C439.708 351.816 439.536 351.328 439.466 350.749C439.396 350.169 439.447 349.659 439.618 349.217C439.789 348.768 440.058 348.409 440.424 348.139C440.791 347.87 441.225 347.705 441.726 347.644ZM447.731 346.918C448.239 346.856 448.7 346.913 449.113 347.088C449.534 347.262 449.88 347.547 450.153 347.943C450.425 348.331 450.596 348.815 450.666 349.394C450.736 349.974 450.686 350.488 450.515 350.937C450.344 351.379 450.074 351.734 449.708 352.004C449.348 352.272 448.914 352.437 448.406 352.499C447.906 352.559 447.445 352.503 447.025 352.328C446.604 352.154 446.258 351.873 445.986 351.485C445.713 351.089 445.542 350.602 445.472 350.022C445.401 349.443 445.452 348.932 445.624 348.49C445.795 348.041 446.063 347.682 446.43 347.413C446.797 347.143 447.23 346.978 447.731 346.918ZM447.821 347.658C447.277 347.724 446.873 347.958 446.61 348.36C446.346 348.762 446.253 349.282 446.33 349.919C446.407 350.555 446.622 351.038 446.973 351.365C447.325 351.693 447.773 351.824 448.317 351.758C448.861 351.692 449.264 351.458 449.528 351.056C449.791 350.654 449.885 350.135 449.808 349.498C449.731 348.861 449.516 348.379 449.164 348.051C448.813 347.724 448.365 347.593 447.821 347.658ZM454.713 351.736C454.269 351.79 453.848 351.728 453.449 351.551C453.05 351.374 452.715 351.092 452.443 350.704C452.17 350.308 451.999 349.821 451.928 349.241C451.857 348.648 451.914 348.129 452.1 347.685C452.285 347.242 452.559 346.889 452.919 346.628C453.279 346.359 453.68 346.198 454.124 346.145C454.51 346.098 454.864 346.146 455.187 346.288C455.508 346.424 455.758 346.633 455.938 346.916L455.534 343.578L456.393 343.474L457.34 351.309L456.589 351.4L456.413 350.398C456.307 350.781 456.098 351.089 455.785 351.323C455.471 351.55 455.114 351.687 454.713 351.736ZM454.708 350.974C455.216 350.913 455.601 350.674 455.863 350.257C456.132 349.84 456.227 349.306 456.148 348.655C456.074 348.039 455.862 347.579 455.513 347.272C455.162 346.959 454.744 346.832 454.258 346.891C453.714 346.956 453.314 347.194 453.059 347.602C452.803 348.01 452.713 348.522 452.787 349.138C452.861 349.753 453.068 350.229 453.406 350.565C453.745 350.902 454.178 351.038 454.708 350.974ZM461.592 350.904C461.084 350.965 460.616 350.909 460.189 350.736C459.768 350.562 459.422 350.281 459.15 349.892C458.877 349.497 458.706 349.01 458.636 348.43C458.566 347.851 458.616 347.34 458.788 346.898C458.959 346.449 459.224 346.09 459.583 345.822C459.943 345.553 460.37 345.389 460.863 345.329C461.364 345.269 461.803 345.325 462.179 345.497C462.563 345.668 462.871 345.929 463.102 346.278C463.332 346.621 463.475 347.021 463.53 347.479C463.545 347.6 463.554 347.712 463.559 347.813C463.564 347.914 463.564 348.005 463.56 348.085L459.514 348.574C459.625 349.134 459.853 349.553 460.199 349.831C460.545 350.108 460.972 350.217 461.48 350.155C461.873 350.108 462.183 349.994 462.408 349.814C462.64 349.634 462.816 349.406 462.935 349.13L463.659 349.445C463.503 349.834 463.248 350.159 462.895 350.42C462.549 350.679 462.114 350.841 461.592 350.904ZM460.933 346.083C460.482 346.138 460.126 346.319 459.866 346.626C459.612 346.925 459.474 347.32 459.454 347.808L462.652 347.422C462.572 346.938 462.376 346.58 462.065 346.349C461.754 346.118 461.376 346.03 460.933 346.083ZM469.188 349.876L468.539 344.51L469.237 344.425L469.461 345.291C469.682 344.597 470.215 344.198 471.059 344.096C471.152 344.085 471.253 344.08 471.362 344.081C471.478 344.082 471.578 344.099 471.662 344.132L471.607 344.934C471.525 344.915 471.436 344.904 471.341 344.9C471.247 344.897 471.113 344.906 470.942 344.927C470.72 344.954 470.502 345.046 470.289 345.202C470.083 345.358 469.92 345.577 469.802 345.86C469.683 346.136 469.648 346.474 469.696 346.874L470.047 349.772L469.188 349.876ZM475.658 349.202C475.15 349.264 474.682 349.208 474.254 349.035C473.834 348.86 473.488 348.579 473.216 348.191C472.943 347.796 472.771 347.308 472.701 346.729C472.631 346.149 472.682 345.638 472.854 345.197C473.024 344.748 473.289 344.389 473.649 344.12C474.009 343.852 474.435 343.688 474.929 343.628C475.43 343.567 475.868 343.623 476.245 343.795C476.629 343.967 476.936 344.227 477.167 344.577C477.397 344.919 477.54 345.319 477.595 345.777C477.61 345.899 477.62 346.01 477.625 346.111C477.63 346.212 477.63 346.303 477.625 346.384L473.579 346.873C473.69 347.433 473.919 347.852 474.265 348.13C474.61 348.407 475.037 348.515 475.545 348.454C475.939 348.406 476.248 348.293 476.473 348.113C476.705 347.932 476.881 347.704 477 347.428L477.724 347.744C477.568 348.133 477.313 348.458 476.96 348.718C476.614 348.978 476.18 349.139 475.658 349.202ZM474.998 344.382C474.548 344.436 474.192 344.617 473.931 344.925C473.677 345.224 473.54 345.618 473.519 346.107L476.717 345.72C476.637 345.236 476.441 344.879 476.13 344.648C475.819 344.417 475.442 344.328 474.998 344.382ZM482.352 342.839L483.254 342.73L481.671 348.366L480.812 348.47L477.931 343.374L478.907 343.256L481.147 347.548L482.352 342.839ZM484.681 341.512C484.487 341.535 484.323 341.497 484.188 341.397C484.058 341.29 483.982 341.139 483.959 340.946C483.935 340.753 483.974 340.592 484.075 340.464C484.182 340.327 484.332 340.247 484.525 340.224C484.718 340.201 484.879 340.243 485.008 340.351C485.144 340.45 485.223 340.597 485.247 340.79C485.27 340.983 485.228 341.148 485.121 341.284C485.021 341.413 484.874 341.489 484.681 341.512ZM485.234 342.49L485.884 347.857L485.025 347.96L484.376 342.594L485.234 342.49ZM490.132 347.452C489.624 347.513 489.156 347.457 488.729 347.284C488.308 347.11 487.962 346.828 487.69 346.44C487.417 346.045 487.246 345.558 487.176 344.978C487.106 344.398 487.156 343.888 487.328 343.446C487.499 342.997 487.764 342.638 488.123 342.37C488.483 342.101 488.909 341.937 489.403 341.877C489.904 341.817 490.343 341.872 490.719 342.045C491.103 342.216 491.41 342.477 491.641 342.826C491.872 343.169 492.014 343.569 492.07 344.027C492.084 344.148 492.094 344.26 492.099 344.361C492.104 344.462 492.104 344.552 492.1 344.633L488.053 345.122C488.165 345.682 488.393 346.101 488.739 346.379C489.085 346.656 489.512 346.764 490.02 346.703C490.413 346.655 490.722 346.542 490.947 346.362C491.18 346.181 491.355 345.953 491.475 345.678L492.199 345.993C492.043 346.382 491.788 346.707 491.435 346.967C491.088 347.227 490.654 347.388 490.132 347.452ZM489.473 342.631C489.022 342.686 488.666 342.867 488.406 343.174C488.152 343.473 488.014 343.867 487.993 344.356L491.192 343.969C491.111 343.486 490.916 343.128 490.605 342.897C490.294 342.666 489.916 342.577 489.473 342.631ZM500.025 340.701L500.98 340.586L499.761 346.178L498.903 346.282L496.873 342.193L495.962 346.638L495.103 346.741L492.587 341.601L493.542 341.485L495.423 345.69L496.354 341.145L497.213 341.041L499.201 345.233L500.025 340.701Z" fill="black"/>
<circle cx="52.7026" cy="80.6394" r="8.1081" fill="#0A56CA"/>
<circle cx="52.7026" cy="180.867" r="8.1081" fill="#0A56CA"/>
<circle cx="52.7026" cy="338.747" r="8.1081" fill="#0A56CA"/>
<circle cx="52.7026" cy="406.314" r="8.1081" fill="#0A56CA"/>
<circle cx="409.459" cy="96.8552" r="8.1081" fill="#FCB54D"/>
<circle cx="528.378" cy="160.369" r="8.1081" fill="#FFE0B3"/>
<circle cx="647.297" cy="152.261" r="8.1081" fill="#FFE0B3"/>
<circle cx="647.297" cy="191.45" r="8.1081" fill="#FFE0B3"/>
<circle cx="647.297" cy="291.45" r="8.1081" fill="#FFE0B3"/>
<circle cx="647.297" cy="330.639" r="8.1081" fill="#FFE0B3"/>
<circle cx="528.378" cy="199.558" r="8.1081" fill="#FFE0B3"/>
<circle cx="409.459" cy="214.424" r="8.1081" fill="#FCB54D"/>
<circle cx="290.54" cy="268.477" r="8.1081" fill="#3AD293"/>
<circle cx="171.622" cy="166.108" r="8.1081" fill="#F42545"/>
<circle cx="409.459" cy="136.045" r="8.1081" fill="#FCB54D"/>
<circle cx="409.459" cy="175.234" r="8.1081" fill="#FCB54D"/>
<circle cx="290.54" cy="229.288" r="8.1081" fill="#3AD293"/>
<circle cx="290.54" cy="376.586" r="8.1081" fill="#3AD293"/>
<circle cx="409.459" cy="283.341" r="8.1081" fill="#FCB54D"/>
<circle cx="409.459" cy="322.53" r="8.1081" fill="#FCB54D"/>
<circle cx="409.459" cy="361.72" r="8.1081" fill="#FCB54D"/>
<circle cx="409.459" cy="400.91" r="8.1081" fill="#FCB54D"/>
<circle cx="290.54" cy="307.667" r="8.1081" fill="#3AD293"/>
</svg>
