<svg width="253" height="315" viewBox="0 0 253 315" fill="none" xmlns="http://www.w3.org/2000/svg">
<path d="M57.3047 26.9643V29.0106H54.785V32.4097C54.785 32.8156 54.8808 33.1087 55.0725 33.2891C55.2754 33.4582 55.5516 33.5428 55.9011 33.5428C56.1717 33.5428 56.4028 33.5146 56.5945 33.4582C56.7861 33.3906 56.9665 33.2947 57.1356 33.1707L57.44 34.9464C57.1582 35.1381 56.7974 35.2959 56.3577 35.4199C55.9293 35.5327 55.4952 35.589 55.0556 35.589C54.086 35.589 53.3193 35.3861 52.7556 34.9802C52.2032 34.5631 51.9213 33.8641 51.9101 32.8832V29.0106H50.4557V26.9643H51.9101V25.0703L54.785 24.2754V26.9643H57.3047ZM58.6327 35.4199V26.9643H61.1693L61.2877 28.7907C61.4907 28.1707 61.8007 27.6859 62.2178 27.3364C62.6463 26.9756 63.193 26.7952 63.8582 26.7952C64.0724 26.7952 64.2528 26.8178 64.3994 26.8629C64.5572 26.8967 64.6812 26.9361 64.7714 26.9812L64.4839 29.3488C64.3712 29.315 64.2246 29.2812 64.0442 29.2473C63.8751 29.2135 63.6666 29.1966 63.4185 29.1966C62.8999 29.1966 62.449 29.3601 62.0656 29.687C61.6936 30.014 61.5076 30.5044 61.5076 31.1583V35.4199H58.6327ZM68.7572 35.589C67.9003 35.589 67.2014 35.3579 66.6602 34.8957C66.119 34.4334 65.8485 33.6724 65.8485 32.6127V26.9643H68.7234V31.9362C68.7234 32.4774 68.8305 32.8551 69.0447 33.0693C69.2589 33.2835 69.5633 33.3906 69.9579 33.3906C70.3637 33.3906 70.7076 33.244 70.9895 32.9509C71.2826 32.6465 71.4291 32.1617 71.4291 31.4965V26.9643H74.304V35.4199H71.7335L71.649 33.8303C71.3784 34.4278 71.0007 34.8731 70.5159 35.1663C70.0312 35.4481 69.4449 35.589 68.7572 35.589ZM76.3696 35.4199V26.9643H78.9401L79.0246 28.6724C79.284 28.0523 79.6616 27.5844 80.1577 27.2687C80.6538 26.9531 81.24 26.7952 81.9165 26.7952C82.7846 26.7952 83.4892 27.0489 84.0304 27.5562C84.5715 28.0636 84.8421 28.8076 84.8421 29.7885V35.4199H81.9672V30.5495C81.9672 29.9632 81.8545 29.5574 81.629 29.3319C81.4035 29.1064 81.116 28.9937 80.7665 28.9937C80.3494 28.9937 79.9886 29.1402 79.6842 29.4334C79.3911 29.7265 79.2445 30.2282 79.2445 30.9385V35.4199H76.3696ZM89.7314 23.3792V30.5157L92.9445 26.9643H96.1408L93.0291 30.2789L96.3268 35.4199H93.1475L91.1012 31.9531L89.7314 33.4751V35.4199H86.8565V23.3792H89.7314Z" fill="black"/>
<rect x="71.8726" y="53.9717" width="2.81853" height="260.714" fill="#EFEFF1"/>
<path d="M164.618 35.4199V26.9643H165.718L165.904 28.351C166.377 27.3138 167.279 26.7952 168.609 26.7952C168.756 26.7952 168.914 26.8065 169.083 26.829C169.263 26.8516 169.415 26.8967 169.539 26.9643L169.303 28.1988C169.179 28.1537 169.043 28.1199 168.897 28.0974C168.75 28.0748 168.542 28.0636 168.271 28.0636C167.922 28.0636 167.566 28.165 167.206 28.368C166.856 28.5709 166.563 28.8809 166.326 29.2981C166.09 29.7039 165.971 30.2226 165.971 30.8539V35.4199H164.618ZM174.792 35.589C173.991 35.589 173.275 35.4143 172.644 35.0648C172.024 34.7153 171.539 34.2136 171.19 33.5597C170.84 32.8945 170.665 32.1053 170.665 31.1921C170.665 30.2789 170.84 29.4954 171.19 28.8415C171.539 28.1763 172.018 27.669 172.627 27.3195C173.236 26.97 173.929 26.7952 174.707 26.7952C175.496 26.7952 176.167 26.9643 176.72 27.3026C177.283 27.6408 177.712 28.103 178.005 28.6893C178.298 29.2642 178.444 29.9125 178.444 30.6341C178.444 30.8257 178.439 31.0005 178.428 31.1583C178.416 31.3161 178.399 31.4571 178.377 31.5811H172.001C172.069 32.4717 172.345 33.1651 172.83 33.6612C173.315 34.1572 173.957 34.4053 174.758 34.4053C175.378 34.4053 175.88 34.2869 176.263 34.0501C176.658 33.8134 176.973 33.492 177.21 33.0862L178.275 33.7119C177.96 34.2869 177.503 34.7435 176.906 35.0817C176.319 35.4199 175.615 35.589 174.792 35.589ZM174.673 27.979C173.963 27.979 173.377 28.1932 172.915 28.6216C172.464 29.0388 172.176 29.625 172.052 30.3804H177.092C177.058 29.6137 176.821 29.0219 176.381 28.6047C175.942 28.1876 175.372 27.979 174.673 27.979ZM182.303 23.0748V33.2722C182.303 33.7006 182.382 33.9994 182.54 34.1685C182.697 34.3263 182.951 34.4053 183.301 34.4053C183.526 34.4053 183.712 34.3883 183.859 34.3545C184.005 34.3207 184.202 34.2587 184.45 34.1685L184.231 35.3523C183.859 35.5101 183.441 35.589 182.979 35.589C181.626 35.589 180.95 34.8337 180.95 33.3229V23.0748H182.303ZM189.721 35.589C188.921 35.589 188.205 35.4143 187.573 35.0648C186.953 34.7153 186.468 34.2136 186.119 33.5597C185.77 32.8945 185.595 32.1053 185.595 31.1921C185.595 30.2789 185.77 29.4954 186.119 28.8415C186.468 28.1763 186.948 27.669 187.556 27.3195C188.165 26.97 188.859 26.7952 189.637 26.7952C190.426 26.7952 191.097 26.9643 191.649 27.3026C192.213 27.6408 192.641 28.103 192.934 28.6893C193.227 29.2642 193.374 29.9125 193.374 30.6341C193.374 30.8257 193.368 31.0005 193.357 31.1583C193.346 31.3161 193.329 31.4571 193.306 31.5811H186.931C186.998 32.4717 187.275 33.1651 187.759 33.6612C188.244 34.1572 188.887 34.4053 189.687 34.4053C190.307 34.4053 190.809 34.2869 191.192 34.0501C191.587 33.8134 191.903 33.492 192.139 33.0862L193.205 33.7119C192.889 34.2869 192.433 34.7435 191.835 35.0817C191.249 35.4199 190.544 35.589 189.721 35.589ZM189.603 27.979C188.892 27.979 188.306 28.1932 187.844 28.6216C187.393 29.0388 187.105 29.625 186.981 30.3804H192.021C191.987 29.6137 191.75 29.0219 191.311 28.6047C190.871 28.1876 190.302 27.979 189.603 27.979ZM200.885 29.9576C200.885 29.3263 200.716 28.8415 200.378 28.5032C200.039 28.1537 199.56 27.979 198.94 27.979C198.354 27.979 197.858 28.1087 197.452 28.368C197.046 28.616 196.747 29.0219 196.556 29.5856L195.456 28.9091C195.682 28.2778 196.099 27.7704 196.708 27.3871C197.317 26.9925 198.072 26.7952 198.974 26.7952C199.583 26.7952 200.135 26.9023 200.631 27.1165C201.127 27.3195 201.516 27.6351 201.798 28.0636C202.091 28.4807 202.238 29.0219 202.238 29.687V33.7795C202.238 34.1854 202.452 34.3883 202.88 34.3883C203.095 34.3883 203.303 34.3602 203.506 34.3038L203.439 35.3692C203.213 35.4819 202.92 35.5383 202.559 35.5383C202.142 35.5383 201.781 35.4368 201.477 35.2339C201.184 35.031 200.992 34.7209 200.902 34.3038C200.609 34.7435 200.209 35.0704 199.701 35.2846C199.194 35.4876 198.692 35.589 198.196 35.589C197.7 35.589 197.238 35.5045 196.809 35.3354C196.381 35.1663 196.037 34.9126 195.778 34.5744C195.53 34.2249 195.406 33.7964 195.406 33.2891C195.406 32.6578 195.614 32.1392 196.031 31.7333C196.46 31.3161 197.052 31.0343 197.807 30.8877L200.885 30.2789V29.9576ZM196.792 33.2215C196.792 33.571 196.928 33.8585 197.198 34.0839C197.48 34.2981 197.875 34.4053 198.382 34.4053C198.822 34.4053 199.228 34.332 199.6 34.1854C199.983 34.0276 200.293 33.7964 200.53 33.492C200.767 33.1764 200.885 32.7761 200.885 32.2914V31.3951L198.433 31.9024C197.88 32.0151 197.469 32.173 197.198 32.3759C196.928 32.5788 196.792 32.8607 196.792 33.2215ZM208.57 35.589C207.747 35.589 206.986 35.4143 206.287 35.0648C205.599 34.7153 205.069 34.2192 204.697 33.5766L205.847 32.748C206.095 33.2666 206.456 33.6724 206.929 33.9656C207.414 34.2587 207.995 34.4053 208.671 34.4053C209.269 34.4053 209.736 34.2925 210.075 34.067C210.413 33.8303 210.582 33.5259 210.582 33.1538C210.582 32.9171 210.503 32.7029 210.345 32.5112C210.199 32.3083 209.911 32.1617 209.483 32.0715L207.453 31.6487C206.63 31.4796 206.038 31.1978 205.678 30.8032C205.328 30.4086 205.153 29.9181 205.153 29.3319C205.153 28.8697 205.283 28.4469 205.542 28.0636C205.813 27.6802 206.191 27.3758 206.675 27.1504C207.172 26.9136 207.752 26.7952 208.417 26.7952C209.252 26.7952 209.956 26.9587 210.531 27.2856C211.106 27.6126 211.535 28.0748 211.816 28.6724L210.683 29.4165C210.492 28.9204 210.182 28.5596 209.753 28.3341C209.325 28.0974 208.88 27.979 208.417 27.979C207.809 27.979 207.335 28.103 206.997 28.351C206.659 28.5991 206.489 28.9091 206.489 29.2812C206.489 29.5292 206.574 29.7603 206.743 29.9745C206.912 30.1775 207.228 30.324 207.69 30.4142L209.804 30.8539C210.593 31.0117 211.146 31.271 211.461 31.6318C211.777 31.9926 211.935 32.4323 211.935 32.9509C211.935 33.7514 211.625 34.394 211.005 34.8788C210.385 35.3523 209.573 35.589 208.57 35.589ZM217.978 35.589C217.177 35.589 216.462 35.4143 215.83 35.0648C215.21 34.7153 214.725 34.2136 214.376 33.5597C214.026 32.8945 213.852 32.1053 213.852 31.1921C213.852 30.2789 214.026 29.4954 214.376 28.8415C214.725 28.1763 215.205 27.669 215.813 27.3195C216.422 26.97 217.115 26.7952 217.893 26.7952C218.683 26.7952 219.353 26.9643 219.906 27.3026C220.47 27.6408 220.898 28.103 221.191 28.6893C221.484 29.2642 221.631 29.9125 221.631 30.6341C221.631 30.8257 221.625 31.0005 221.614 31.1583C221.603 31.3161 221.586 31.4571 221.563 31.5811H215.188C215.255 32.4717 215.531 33.1651 216.016 33.6612C216.501 34.1572 217.144 34.4053 217.944 34.4053C218.564 34.4053 219.066 34.2869 219.449 34.0501C219.844 33.8134 220.159 33.492 220.396 33.0862L221.462 33.7119C221.146 34.2869 220.689 34.7435 220.092 35.0817C219.506 35.4199 218.801 35.589 217.978 35.589ZM217.86 27.979C217.149 27.979 216.563 28.1932 216.101 28.6216C215.65 29.0388 215.362 29.625 215.238 30.3804H220.278C220.244 29.6137 220.007 29.0219 219.568 28.6047C219.128 28.1876 218.559 27.979 217.86 27.979ZM227.248 35.589C226.425 35.589 225.664 35.4143 224.965 35.0648C224.277 34.7153 223.747 34.2192 223.375 33.5766L224.525 32.748C224.773 33.2666 225.134 33.6724 225.607 33.9656C226.092 34.2587 226.673 34.4053 227.349 34.4053C227.947 34.4053 228.415 34.2925 228.753 34.067C229.091 33.8303 229.26 33.5259 229.26 33.1538C229.26 32.9171 229.181 32.7029 229.023 32.5112C228.877 32.3083 228.589 32.1617 228.161 32.0715L226.132 31.6487C225.309 31.4796 224.717 31.1978 224.356 30.8032C224.006 30.4086 223.832 29.9181 223.832 29.3319C223.832 28.8697 223.961 28.4469 224.221 28.0636C224.491 27.6802 224.869 27.3758 225.354 27.1504C225.85 26.9136 226.43 26.7952 227.096 26.7952C227.93 26.7952 228.635 26.9587 229.209 27.2856C229.784 27.6126 230.213 28.0748 230.495 28.6724L229.362 29.4165C229.17 28.9204 228.86 28.5596 228.432 28.3341C228.003 28.0974 227.558 27.979 227.096 27.979C226.487 27.979 226.013 28.103 225.675 28.351C225.337 28.5991 225.168 28.9091 225.168 29.2812C225.168 29.5292 225.252 29.7603 225.421 29.9745C225.591 30.1775 225.906 30.324 226.368 30.4142L228.482 30.8539C229.272 31.0117 229.824 31.271 230.14 31.6318C230.455 31.9926 230.613 32.4323 230.613 32.9509C230.613 33.7514 230.303 34.394 229.683 34.8788C229.063 35.3523 228.251 35.589 227.248 35.589Z" fill="black"/>
<path d="M189.396 139.503C189.636 139.81 189.582 140.252 189.276 140.492L184.282 144.401C183.975 144.641 183.532 144.587 183.292 144.28C183.053 143.974 183.107 143.531 183.413 143.291L187.852 139.817L184.378 135.378C184.138 135.071 184.192 134.628 184.499 134.388C184.805 134.149 185.248 134.203 185.488 134.509L189.396 139.503ZM73.367 125.145L188.927 139.238L188.756 140.637L73.1964 126.544L73.367 125.145Z" fill="black"/>
<path d="M189.396 259.291C189.636 259.598 189.582 260.041 189.276 260.28L184.282 264.189C183.975 264.429 183.532 264.375 183.292 264.068C183.053 263.762 183.107 263.319 183.413 263.079L187.852 259.605L184.378 255.166C184.138 254.859 184.192 254.416 184.499 254.176C184.805 253.937 185.248 253.991 185.488 254.297L189.396 259.291ZM73.367 244.933L188.927 259.026L188.756 260.425L73.1964 246.332L73.367 244.933Z" fill="black"/>
<path d="M72.785 116.479C73.0601 116.754 73.5063 116.754 73.7815 116.479L78.2657 111.994C78.5409 111.719 78.5409 111.273 78.2657 110.998C77.9905 110.723 77.5444 110.723 77.2692 110.998L73.2832 114.984L69.2972 110.998C69.022 110.723 68.5759 110.723 68.3007 110.998C68.0255 111.273 68.0255 111.719 68.3007 111.994L72.785 116.479ZM72.5786 83.5674V115.98H73.9878V83.5674H72.5786Z" fill="black"/>
<path d="M72.785 157.348C73.0601 157.623 73.5063 157.623 73.7815 157.348L78.2657 152.864C78.5409 152.588 78.5409 152.142 78.2657 151.867C77.9905 151.592 77.5444 151.592 77.2692 151.867L73.2832 155.853L69.2972 151.867C69.022 151.592 68.5759 151.592 68.3007 151.867C68.0255 152.142 68.0255 152.588 68.3007 152.864L72.785 157.348ZM72.5786 124.437V156.85H73.9878V124.437H72.5786Z" fill="black"/>
<path d="M72.785 196.807C73.0601 197.082 73.5063 197.082 73.7815 196.807L78.2657 192.323C78.5409 192.047 78.5409 191.601 78.2657 191.326C77.9905 191.051 77.5444 191.051 77.2692 191.326L73.2832 195.312L69.2972 191.326C69.022 191.051 68.5759 191.051 68.3007 191.326C68.0255 191.601 68.0255 192.047 68.3007 192.323L72.785 196.807ZM72.5786 163.896V196.309H73.9878V163.896H72.5786Z" fill="black"/>
<path d="M72.785 237.676C73.0601 237.951 73.5063 237.951 73.7815 237.676L78.2657 233.192C78.5409 232.917 78.5409 232.47 78.2657 232.195C77.9905 231.92 77.5444 231.92 77.2692 232.195L73.2832 236.181L69.2972 232.195C69.022 231.92 68.5759 231.92 68.3007 232.195C68.0255 232.47 68.0255 232.917 68.3007 233.192L72.785 237.676ZM72.5786 204.765V237.178H73.9878V204.765H72.5786Z" fill="black"/>
<path d="M72.785 278.544C73.0601 278.819 73.5063 278.819 73.7815 278.544L78.2657 274.06C78.5409 273.785 78.5409 273.339 78.2657 273.063C77.9905 272.788 77.5444 272.788 77.2692 273.063L73.2832 277.049L69.2972 273.063C69.022 272.788 68.5759 272.788 68.3007 273.063C68.0255 273.339 68.0255 273.785 68.3007 274.06L72.785 278.544ZM72.5786 245.633V278.046H73.9878V245.633H72.5786Z" fill="black"/>
<path d="M3.54188 100.501C4.12062 100.501 4.60165 100.636 4.98497 100.907C5.36829 101.17 5.66518 101.535 5.87563 102.001L5.01879 102.406C4.89854 102.046 4.71439 101.771 4.46636 101.583C4.22585 101.388 3.91017 101.29 3.51933 101.29C2.95563 101.29 2.51218 101.482 2.18899 101.865C1.87331 102.241 1.71547 102.764 1.71547 103.432C1.71547 104.101 1.87331 104.628 2.18899 105.011C2.51218 105.387 2.95563 105.575 3.51933 105.575C3.96278 105.575 4.31604 105.473 4.5791 105.27C4.84216 105.067 5.01503 104.782 5.09771 104.413L5.932 104.706C5.74409 105.225 5.44721 105.631 5.04134 105.924C4.64299 106.217 4.14317 106.364 3.54188 106.364C3.01576 106.364 2.546 106.247 2.13262 106.014C1.71923 105.781 1.39604 105.447 1.16304 105.011C0.930044 104.567 0.813544 104.041 0.813544 103.432C0.813544 102.824 0.930044 102.301 1.16304 101.865C1.39604 101.422 1.71923 101.084 2.13262 100.851C2.546 100.618 3.01576 100.501 3.54188 100.501ZM9.85055 100.501C10.3842 100.501 10.8539 100.618 11.2598 100.851C11.6732 101.084 11.9964 101.422 12.2294 101.865C12.4624 102.301 12.5789 102.824 12.5789 103.432C12.5789 104.041 12.4624 104.567 12.2294 105.011C11.9964 105.447 11.6732 105.781 11.2598 106.014C10.8539 106.247 10.3842 106.364 9.85055 106.364C9.32442 106.364 8.85467 106.247 8.44128 106.014C8.0279 105.781 7.70471 105.447 7.47171 105.011C7.23871 104.567 7.12221 104.041 7.12221 103.432C7.12221 102.824 7.23871 102.301 7.47171 101.865C7.70471 101.422 8.0279 101.084 8.44128 100.851C8.85467 100.618 9.32442 100.501 9.85055 100.501ZM9.85055 101.279C9.27933 101.279 8.83212 101.471 8.50893 101.854C8.18574 102.237 8.02414 102.764 8.02414 103.432C8.02414 104.101 8.18574 104.628 8.50893 105.011C8.83212 105.394 9.27933 105.586 9.85055 105.586C10.4218 105.586 10.869 105.394 11.1922 105.011C11.5154 104.628 11.677 104.101 11.677 103.432C11.677 102.764 11.5154 102.237 11.1922 101.854C10.869 101.471 10.4218 101.279 9.85055 101.279ZM16.4753 106.364C16.0093 106.364 15.5809 106.247 15.1901 106.014C14.7992 105.781 14.4873 105.447 14.2543 105.011C14.0213 104.567 13.9048 104.041 13.9048 103.432C13.9048 102.809 14.0288 102.279 14.2769 101.843C14.5249 101.407 14.8519 101.076 15.2577 100.851C15.6636 100.618 16.0995 100.501 16.5655 100.501C16.9714 100.501 17.3322 100.595 17.6478 100.783C17.9635 100.963 18.1965 101.211 18.3468 101.527V98.0209H19.2488V106.251H18.4596L18.4032 105.191C18.2454 105.575 17.9898 105.868 17.6366 106.071C17.2833 106.266 16.8962 106.364 16.4753 106.364ZM16.5655 105.575C17.0992 105.575 17.5276 105.375 17.8508 104.977C18.1815 104.579 18.3468 104.037 18.3468 103.354C18.3468 102.707 18.1852 102.204 17.862 101.843C17.5389 101.475 17.1217 101.29 16.6106 101.29C16.0394 101.29 15.5959 101.486 15.2803 101.877C14.9646 102.267 14.8068 102.786 14.8068 103.432C14.8068 104.079 14.9608 104.597 15.269 104.988C15.5772 105.379 16.0093 105.575 16.5655 105.575ZM23.7015 106.364C23.1679 106.364 22.6906 106.247 22.2697 106.014C21.8563 105.781 21.5331 105.447 21.3001 105.011C21.0671 104.567 20.9506 104.041 20.9506 103.432C20.9506 102.824 21.0671 102.301 21.3001 101.865C21.5331 101.422 21.8526 101.084 22.2584 100.851C22.6643 100.618 23.1265 100.501 23.6451 100.501C24.1713 100.501 24.6185 100.614 24.9868 100.839C25.3626 101.065 25.6482 101.373 25.8436 101.764C26.039 102.147 26.1367 102.579 26.1367 103.06C26.1367 103.188 26.133 103.305 26.1255 103.41C26.1179 103.515 26.1067 103.609 26.0916 103.692H21.8413C21.8864 104.286 22.0705 104.748 22.3937 105.078C22.7169 105.409 23.1453 105.575 23.679 105.575C24.0924 105.575 24.4268 105.496 24.6824 105.338C24.9454 105.18 25.1559 104.966 25.3137 104.695L26.024 105.112C25.8135 105.496 25.5091 105.8 25.1108 106.025C24.7199 106.251 24.2502 106.364 23.7015 106.364ZM23.6226 101.29C23.1491 101.29 22.7582 101.433 22.4501 101.719C22.1494 101.997 21.9578 102.388 21.8751 102.891H25.2348C25.2122 102.38 25.0544 101.986 24.7613 101.708C24.4682 101.429 24.0886 101.29 23.6226 101.29ZM31.6945 106.251V100.614H32.4273L32.5513 101.538C32.867 100.847 33.4683 100.501 34.3552 100.501C34.4529 100.501 34.5581 100.509 34.6709 100.524C34.7911 100.539 34.8926 100.569 34.9753 100.614L34.8174 101.437C34.7348 101.407 34.6446 101.384 34.5469 101.369C34.4492 101.354 34.3101 101.347 34.1297 101.347C33.8967 101.347 33.66 101.414 33.4195 101.55C33.1865 101.685 32.991 101.892 32.8332 102.17C32.6754 102.44 32.5964 102.786 32.5964 103.207V106.251H31.6945ZM38.4768 106.364C37.9431 106.364 37.4659 106.247 37.045 106.014C36.6316 105.781 36.3084 105.447 36.0754 105.011C35.8424 104.567 35.7259 104.041 35.7259 103.432C35.7259 102.824 35.8424 102.301 36.0754 101.865C36.3084 101.422 36.6278 101.084 37.0337 100.851C37.4396 100.618 37.9018 100.501 38.4204 100.501C38.9465 100.501 39.3937 100.614 39.762 100.839C40.1378 101.065 40.4234 101.373 40.6189 101.764C40.8143 102.147 40.912 102.579 40.912 103.06C40.912 103.188 40.9082 103.305 40.9007 103.41C40.8932 103.515 40.8819 103.609 40.8669 103.692H36.6165C36.6616 104.286 36.8458 104.748 37.169 105.078C37.4922 105.409 37.9206 105.575 38.4542 105.575C38.8676 105.575 39.2021 105.496 39.4576 105.338C39.7207 105.18 39.9311 104.966 40.089 104.695L40.7993 105.112C40.5888 105.496 40.2844 105.8 39.886 106.025C39.4952 106.251 39.0255 106.364 38.4768 106.364ZM38.3979 101.29C37.9243 101.29 37.5335 101.433 37.2254 101.719C36.9247 101.997 36.733 102.388 36.6504 102.891H40.0101C39.9875 102.38 39.8297 101.986 39.5365 101.708C39.2434 101.429 38.8639 101.29 38.3979 101.29ZM46.2049 100.614H47.152L44.8069 106.251H43.905L41.56 100.614H42.5859L44.3672 105.338L46.2049 100.614ZM48.7814 99.5316C48.5785 99.5316 48.4131 99.4715 48.2854 99.3512C48.1651 99.2234 48.105 99.0581 48.105 98.8552C48.105 98.6522 48.1651 98.4906 48.2854 98.3704C48.4131 98.2426 48.5785 98.1787 48.7814 98.1787C48.9844 98.1787 49.1459 98.2426 49.2662 98.3704C49.394 98.4906 49.4579 98.6522 49.4579 98.8552C49.4579 99.0581 49.394 99.2234 49.2662 99.3512C49.1459 99.4715 48.9844 99.5316 48.7814 99.5316ZM49.2324 100.614V106.251H48.3305V100.614H49.2324ZM53.6814 106.364C53.1478 106.364 52.6705 106.247 52.2496 106.014C51.8362 105.781 51.513 105.447 51.28 105.011C51.047 104.567 50.9305 104.041 50.9305 103.432C50.9305 102.824 51.047 102.301 51.28 101.865C51.513 101.422 51.8325 101.084 52.2383 100.851C52.6442 100.618 53.1065 100.501 53.6251 100.501C54.1512 100.501 54.5984 100.614 54.9667 100.839C55.3425 101.065 55.6281 101.373 55.8235 101.764C56.0189 102.147 56.1166 102.579 56.1166 103.06C56.1166 103.188 56.1129 103.305 56.1054 103.41C56.0979 103.515 56.0866 103.609 56.0715 103.692H51.8212C51.8663 104.286 52.0504 104.748 52.3736 105.078C52.6968 105.409 53.1252 105.575 53.6589 105.575C54.0723 105.575 54.4067 105.496 54.6623 105.338C54.9253 105.18 55.1358 104.966 55.2936 104.695L56.0039 105.112C55.7935 105.496 55.4891 105.8 55.0907 106.025C54.6999 106.251 54.2301 106.364 53.6814 106.364ZM53.6025 101.29C53.129 101.29 52.7382 101.433 52.43 101.719C52.1294 101.997 51.9377 102.388 51.855 102.891H55.2147C55.1922 102.38 55.0343 101.986 54.7412 101.708C54.4481 101.429 54.0685 101.29 53.6025 101.29ZM64.7687 100.614H65.7721L63.8104 106.251H62.9085L61.3189 101.764L59.8194 106.251H58.9175L56.9558 100.614H57.9592L59.3797 105.202L60.913 100.614H61.8149L63.3482 105.202L64.7687 100.614Z" fill="#828282"/>
<path d="M0.159645 102.869H66.0765V103.432H0.159645V102.869Z" fill="#828282"/>
<path d="M3.54188 141.369C4.12062 141.369 4.60165 141.505 4.98497 141.775C5.36829 142.038 5.66518 142.403 5.87563 142.869L5.01879 143.275C4.89854 142.914 4.71439 142.64 4.46636 142.452C4.22585 142.256 3.91017 142.159 3.51933 142.159C2.95563 142.159 2.51218 142.35 2.18899 142.734C1.87331 143.109 1.71547 143.632 1.71547 144.301C1.71547 144.97 1.87331 145.496 2.18899 145.879C2.51218 146.255 2.95563 146.443 3.51933 146.443C3.96278 146.443 4.31604 146.341 4.5791 146.138C4.84216 145.935 5.01503 145.65 5.09771 145.281L5.932 145.575C5.74409 146.093 5.44721 146.499 5.04134 146.792C4.64299 147.085 4.14317 147.232 3.54188 147.232C3.01576 147.232 2.546 147.115 2.13262 146.882C1.71923 146.649 1.39604 146.315 1.16304 145.879C0.930044 145.436 0.813544 144.909 0.813544 144.301C0.813544 143.692 0.930044 143.169 1.16304 142.734C1.39604 142.29 1.71923 141.952 2.13262 141.719C2.546 141.486 3.01576 141.369 3.54188 141.369ZM9.85055 141.369C10.3842 141.369 10.8539 141.486 11.2598 141.719C11.6732 141.952 11.9964 142.29 12.2294 142.734C12.4624 143.169 12.5789 143.692 12.5789 144.301C12.5789 144.909 12.4624 145.436 12.2294 145.879C11.9964 146.315 11.6732 146.649 11.2598 146.882C10.8539 147.115 10.3842 147.232 9.85055 147.232C9.32442 147.232 8.85467 147.115 8.44128 146.882C8.0279 146.649 7.70471 146.315 7.47171 145.879C7.23871 145.436 7.12221 144.909 7.12221 144.301C7.12221 143.692 7.23871 143.169 7.47171 142.734C7.70471 142.29 8.0279 141.952 8.44128 141.719C8.85467 141.486 9.32442 141.369 9.85055 141.369ZM9.85055 142.147C9.27933 142.147 8.83212 142.339 8.50893 142.722C8.18574 143.106 8.02414 143.632 8.02414 144.301C8.02414 144.97 8.18574 145.496 8.50893 145.879C8.83212 146.262 9.27933 146.454 9.85055 146.454C10.4218 146.454 10.869 146.262 11.1922 145.879C11.5154 145.496 11.677 144.97 11.677 144.301C11.677 143.632 11.5154 143.106 11.1922 142.722C10.869 142.339 10.4218 142.147 9.85055 142.147ZM16.4753 147.232C16.0093 147.232 15.5809 147.115 15.1901 146.882C14.7992 146.649 14.4873 146.315 14.2543 145.879C14.0213 145.436 13.9048 144.909 13.9048 144.301C13.9048 143.677 14.0288 143.147 14.2769 142.711C14.5249 142.275 14.8519 141.944 15.2577 141.719C15.6636 141.486 16.0995 141.369 16.5655 141.369C16.9714 141.369 17.3322 141.463 17.6478 141.651C17.9635 141.832 18.1965 142.08 18.3468 142.395V138.889H19.2488V147.119H18.4596L18.4032 146.059C18.2454 146.443 17.9898 146.736 17.6366 146.939C17.2833 147.134 16.8962 147.232 16.4753 147.232ZM16.5655 146.443C17.0992 146.443 17.5276 146.244 17.8508 145.845C18.1815 145.447 18.3468 144.906 18.3468 144.222C18.3468 143.575 18.1852 143.072 17.862 142.711C17.5389 142.343 17.1217 142.159 16.6106 142.159C16.0394 142.159 15.5959 142.354 15.2803 142.745C14.9646 143.136 14.8068 143.654 14.8068 144.301C14.8068 144.947 14.9608 145.466 15.269 145.856C15.5772 146.247 16.0093 146.443 16.5655 146.443ZM23.7015 147.232C23.1679 147.232 22.6906 147.115 22.2697 146.882C21.8563 146.649 21.5331 146.315 21.3001 145.879C21.0671 145.436 20.9506 144.909 20.9506 144.301C20.9506 143.692 21.0671 143.169 21.3001 142.734C21.5331 142.29 21.8526 141.952 22.2584 141.719C22.6643 141.486 23.1265 141.369 23.6451 141.369C24.1713 141.369 24.6185 141.482 24.9868 141.708C25.3626 141.933 25.6482 142.241 25.8436 142.632C26.039 143.015 26.1367 143.448 26.1367 143.929C26.1367 144.056 26.133 144.173 26.1255 144.278C26.1179 144.383 26.1067 144.477 26.0916 144.56H21.8413C21.8864 145.154 22.0705 145.616 22.3937 145.947C22.7169 146.277 23.1453 146.443 23.679 146.443C24.0924 146.443 24.4268 146.364 24.6824 146.206C24.9454 146.048 25.1559 145.834 25.3137 145.563L26.024 145.98C25.8135 146.364 25.5091 146.668 25.1108 146.894C24.7199 147.119 24.2502 147.232 23.7015 147.232ZM23.6226 142.159C23.1491 142.159 22.7582 142.301 22.4501 142.587C22.1494 142.865 21.9578 143.256 21.8751 143.759H25.2348C25.2122 143.248 25.0544 142.854 24.7613 142.576C24.4682 142.298 24.0886 142.159 23.6226 142.159ZM31.6945 147.119V141.482H32.4273L32.5513 142.407C32.867 141.715 33.4683 141.369 34.3552 141.369C34.4529 141.369 34.5581 141.377 34.6709 141.392C34.7911 141.407 34.8926 141.437 34.9753 141.482L34.8174 142.305C34.7348 142.275 34.6446 142.252 34.5469 142.237C34.4492 142.222 34.3101 142.215 34.1297 142.215C33.8967 142.215 33.66 142.283 33.4195 142.418C33.1865 142.553 32.991 142.76 32.8332 143.038C32.6754 143.308 32.5964 143.654 32.5964 144.075V147.119H31.6945ZM38.4768 147.232C37.9431 147.232 37.4659 147.115 37.045 146.882C36.6316 146.649 36.3084 146.315 36.0754 145.879C35.8424 145.436 35.7259 144.909 35.7259 144.301C35.7259 143.692 35.8424 143.169 36.0754 142.734C36.3084 142.29 36.6278 141.952 37.0337 141.719C37.4396 141.486 37.9018 141.369 38.4204 141.369C38.9465 141.369 39.3937 141.482 39.762 141.708C40.1378 141.933 40.4234 142.241 40.6189 142.632C40.8143 143.015 40.912 143.448 40.912 143.929C40.912 144.056 40.9082 144.173 40.9007 144.278C40.8932 144.383 40.8819 144.477 40.8669 144.56H36.6165C36.6616 145.154 36.8458 145.616 37.169 145.947C37.4922 146.277 37.9206 146.443 38.4542 146.443C38.8676 146.443 39.2021 146.364 39.4576 146.206C39.7207 146.048 39.9311 145.834 40.089 145.563L40.7993 145.98C40.5888 146.364 40.2844 146.668 39.886 146.894C39.4952 147.119 39.0255 147.232 38.4768 147.232ZM38.3979 142.159C37.9243 142.159 37.5335 142.301 37.2254 142.587C36.9247 142.865 36.733 143.256 36.6504 143.759H40.0101C39.9875 143.248 39.8297 142.854 39.5365 142.576C39.2434 142.298 38.8639 142.159 38.3979 142.159ZM46.2049 141.482H47.152L44.8069 147.119H43.905L41.56 141.482H42.5859L44.3672 146.206L46.2049 141.482ZM48.7814 140.4C48.5785 140.4 48.4131 140.34 48.2854 140.219C48.1651 140.092 48.105 139.926 48.105 139.723C48.105 139.52 48.1651 139.359 48.2854 139.239C48.4131 139.111 48.5785 139.047 48.7814 139.047C48.9844 139.047 49.1459 139.111 49.2662 139.239C49.394 139.359 49.4579 139.52 49.4579 139.723C49.4579 139.926 49.394 140.092 49.2662 140.219C49.1459 140.34 48.9844 140.4 48.7814 140.4ZM49.2324 141.482V147.119H48.3305V141.482H49.2324ZM53.6814 147.232C53.1478 147.232 52.6705 147.115 52.2496 146.882C51.8362 146.649 51.513 146.315 51.28 145.879C51.047 145.436 50.9305 144.909 50.9305 144.301C50.9305 143.692 51.047 143.169 51.28 142.734C51.513 142.29 51.8325 141.952 52.2383 141.719C52.6442 141.486 53.1065 141.369 53.6251 141.369C54.1512 141.369 54.5984 141.482 54.9667 141.708C55.3425 141.933 55.6281 142.241 55.8235 142.632C56.0189 143.015 56.1166 143.448 56.1166 143.929C56.1166 144.056 56.1129 144.173 56.1054 144.278C56.0979 144.383 56.0866 144.477 56.0715 144.56H51.8212C51.8663 145.154 52.0504 145.616 52.3736 145.947C52.6968 146.277 53.1252 146.443 53.6589 146.443C54.0723 146.443 54.4067 146.364 54.6623 146.206C54.9253 146.048 55.1358 145.834 55.2936 145.563L56.0039 145.98C55.7935 146.364 55.4891 146.668 55.0907 146.894C54.6999 147.119 54.2301 147.232 53.6814 147.232ZM53.6025 142.159C53.129 142.159 52.7382 142.301 52.43 142.587C52.1294 142.865 51.9377 143.256 51.855 143.759H55.2147C55.1922 143.248 55.0343 142.854 54.7412 142.576C54.4481 142.298 54.0685 142.159 53.6025 142.159ZM64.7687 141.482H65.7721L63.8104 147.119H62.9085L61.3189 142.632L59.8194 147.119H58.9175L56.9558 141.482H57.9592L59.3797 146.071L60.913 141.482H61.8149L63.3482 146.071L64.7687 141.482Z" fill="#828282"/>
<path d="M0.159645 143.737H66.0765V144.301H0.159645V143.737Z" fill="#828282"/>
<path d="M3.54188 182.238C4.12062 182.238 4.60165 182.374 4.98497 182.644C5.36829 182.907 5.66518 183.272 5.87563 183.738L5.01879 184.144C4.89854 183.783 4.71439 183.509 4.46636 183.321C4.22585 183.125 3.91017 183.028 3.51933 183.028C2.95563 183.028 2.51218 183.219 2.18899 183.603C1.87331 183.978 1.71547 184.501 1.71547 185.17C1.71547 185.839 1.87331 186.365 2.18899 186.748C2.51218 187.124 2.95563 187.312 3.51933 187.312C3.96278 187.312 4.31604 187.21 4.5791 187.007C4.84216 186.804 5.01503 186.519 5.09771 186.151L5.932 186.444C5.74409 186.962 5.44721 187.368 5.04134 187.661C4.64299 187.954 4.14317 188.101 3.54188 188.101C3.01576 188.101 2.546 187.985 2.13262 187.752C1.71923 187.519 1.39604 187.184 1.16304 186.748C0.930044 186.305 0.813544 185.779 0.813544 185.17C0.813544 184.561 0.930044 184.039 1.16304 183.603C1.39604 183.159 1.71923 182.821 2.13262 182.588C2.546 182.355 3.01576 182.238 3.54188 182.238ZM9.85055 182.238C10.3842 182.238 10.8539 182.355 11.2598 182.588C11.6732 182.821 11.9964 183.159 12.2294 183.603C12.4624 184.039 12.5789 184.561 12.5789 185.17C12.5789 185.779 12.4624 186.305 12.2294 186.748C11.9964 187.184 11.6732 187.519 11.2598 187.752C10.8539 187.985 10.3842 188.101 9.85055 188.101C9.32442 188.101 8.85467 187.985 8.44128 187.752C8.0279 187.519 7.70471 187.184 7.47171 186.748C7.23871 186.305 7.12221 185.779 7.12221 185.17C7.12221 184.561 7.23871 184.039 7.47171 183.603C7.70471 183.159 8.0279 182.821 8.44128 182.588C8.85467 182.355 9.32442 182.238 9.85055 182.238ZM9.85055 183.016C9.27933 183.016 8.83212 183.208 8.50893 183.591C8.18574 183.975 8.02414 184.501 8.02414 185.17C8.02414 185.839 8.18574 186.365 8.50893 186.748C8.83212 187.131 9.27933 187.323 9.85055 187.323C10.4218 187.323 10.869 187.131 11.1922 186.748C11.5154 186.365 11.677 185.839 11.677 185.17C11.677 184.501 11.5154 183.975 11.1922 183.591C10.869 183.208 10.4218 183.016 9.85055 183.016ZM16.4753 188.101C16.0093 188.101 15.5809 187.985 15.1901 187.752C14.7992 187.519 14.4873 187.184 14.2543 186.748C14.0213 186.305 13.9048 185.779 13.9048 185.17C13.9048 184.546 14.0288 184.016 14.2769 183.58C14.5249 183.144 14.8519 182.813 15.2577 182.588C15.6636 182.355 16.0995 182.238 16.5655 182.238C16.9714 182.238 17.3322 182.332 17.6478 182.52C17.9635 182.701 18.1965 182.949 18.3468 183.264V179.758H19.2488V187.988H18.4596L18.4032 186.929C18.2454 187.312 17.9898 187.605 17.6366 187.808C17.2833 188.003 16.8962 188.101 16.4753 188.101ZM16.5655 187.312C17.0992 187.312 17.5276 187.113 17.8508 186.714C18.1815 186.316 18.3468 185.775 18.3468 185.091C18.3468 184.444 18.1852 183.941 17.862 183.58C17.5389 183.212 17.1217 183.028 16.6106 183.028C16.0394 183.028 15.5959 183.223 15.2803 183.614C14.9646 184.005 14.8068 184.523 14.8068 185.17C14.8068 185.816 14.9608 186.335 15.269 186.726C15.5772 187.116 16.0093 187.312 16.5655 187.312ZM23.7015 188.101C23.1679 188.101 22.6906 187.985 22.2697 187.752C21.8563 187.519 21.5331 187.184 21.3001 186.748C21.0671 186.305 20.9506 185.779 20.9506 185.17C20.9506 184.561 21.0671 184.039 21.3001 183.603C21.5331 183.159 21.8526 182.821 22.2584 182.588C22.6643 182.355 23.1265 182.238 23.6451 182.238C24.1713 182.238 24.6185 182.351 24.9868 182.577C25.3626 182.802 25.6482 183.11 25.8436 183.501C26.039 183.884 26.1367 184.317 26.1367 184.798C26.1367 184.925 26.133 185.042 26.1255 185.147C26.1179 185.252 26.1067 185.346 26.0916 185.429H21.8413C21.8864 186.023 22.0705 186.485 22.3937 186.816C22.7169 187.146 23.1453 187.312 23.679 187.312C24.0924 187.312 24.4268 187.233 24.6824 187.075C24.9454 186.917 25.1559 186.703 25.3137 186.432L26.024 186.85C25.8135 187.233 25.5091 187.537 25.1108 187.763C24.7199 187.988 24.2502 188.101 23.7015 188.101ZM23.6226 183.028C23.1491 183.028 22.7582 183.17 22.4501 183.456C22.1494 183.734 21.9578 184.125 21.8751 184.629H25.2348C25.2122 184.117 25.0544 183.723 24.7613 183.445C24.4682 183.167 24.0886 183.028 23.6226 183.028ZM31.6945 187.988V182.351H32.4273L32.5513 183.276C32.867 182.584 33.4683 182.238 34.3552 182.238C34.4529 182.238 34.5581 182.246 34.6709 182.261C34.7911 182.276 34.8926 182.306 34.9753 182.351L34.8174 183.174C34.7348 183.144 34.6446 183.122 34.5469 183.107C34.4492 183.092 34.3101 183.084 34.1297 183.084C33.8967 183.084 33.66 183.152 33.4195 183.287C33.1865 183.422 32.991 183.629 32.8332 183.907C32.6754 184.178 32.5964 184.523 32.5964 184.944V187.988H31.6945ZM38.4768 188.101C37.9431 188.101 37.4659 187.985 37.045 187.752C36.6316 187.519 36.3084 187.184 36.0754 186.748C35.8424 186.305 35.7259 185.779 35.7259 185.17C35.7259 184.561 35.8424 184.039 36.0754 183.603C36.3084 183.159 36.6278 182.821 37.0337 182.588C37.4396 182.355 37.9018 182.238 38.4204 182.238C38.9465 182.238 39.3937 182.351 39.762 182.577C40.1378 182.802 40.4234 183.11 40.6189 183.501C40.8143 183.884 40.912 184.317 40.912 184.798C40.912 184.925 40.9082 185.042 40.9007 185.147C40.8932 185.252 40.8819 185.346 40.8669 185.429H36.6165C36.6616 186.023 36.8458 186.485 37.169 186.816C37.4922 187.146 37.9206 187.312 38.4542 187.312C38.8676 187.312 39.2021 187.233 39.4576 187.075C39.7207 186.917 39.9311 186.703 40.089 186.432L40.7993 186.85C40.5888 187.233 40.2844 187.537 39.886 187.763C39.4952 187.988 39.0255 188.101 38.4768 188.101ZM38.3979 183.028C37.9243 183.028 37.5335 183.17 37.2254 183.456C36.9247 183.734 36.733 184.125 36.6504 184.629H40.0101C39.9875 184.117 39.8297 183.723 39.5365 183.445C39.2434 183.167 38.8639 183.028 38.3979 183.028ZM46.2049 182.351H47.152L44.8069 187.988H43.905L41.56 182.351H42.5859L44.3672 187.075L46.2049 182.351ZM48.7814 181.269C48.5785 181.269 48.4131 181.209 48.2854 181.089C48.1651 180.961 48.105 180.795 48.105 180.592C48.105 180.39 48.1651 180.228 48.2854 180.108C48.4131 179.98 48.5785 179.916 48.7814 179.916C48.9844 179.916 49.1459 179.98 49.2662 180.108C49.394 180.228 49.4579 180.39 49.4579 180.592C49.4579 180.795 49.394 180.961 49.2662 181.089C49.1459 181.209 48.9844 181.269 48.7814 181.269ZM49.2324 182.351V187.988H48.3305V182.351H49.2324ZM53.6814 188.101C53.1478 188.101 52.6705 187.985 52.2496 187.752C51.8362 187.519 51.513 187.184 51.28 186.748C51.047 186.305 50.9305 185.779 50.9305 185.17C50.9305 184.561 51.047 184.039 51.28 183.603C51.513 183.159 51.8325 182.821 52.2383 182.588C52.6442 182.355 53.1065 182.238 53.6251 182.238C54.1512 182.238 54.5984 182.351 54.9667 182.577C55.3425 182.802 55.6281 183.11 55.8235 183.501C56.0189 183.884 56.1166 184.317 56.1166 184.798C56.1166 184.925 56.1129 185.042 56.1054 185.147C56.0979 185.252 56.0866 185.346 56.0715 185.429H51.8212C51.8663 186.023 52.0504 186.485 52.3736 186.816C52.6968 187.146 53.1252 187.312 53.6589 187.312C54.0723 187.312 54.4067 187.233 54.6623 187.075C54.9253 186.917 55.1358 186.703 55.2936 186.432L56.0039 186.85C55.7935 187.233 55.4891 187.537 55.0907 187.763C54.6999 187.988 54.2301 188.101 53.6814 188.101ZM53.6025 183.028C53.129 183.028 52.7382 183.17 52.43 183.456C52.1294 183.734 51.9377 184.125 51.855 184.629H55.2147C55.1922 184.117 55.0343 183.723 54.7412 183.445C54.4481 183.167 54.0685 183.028 53.6025 183.028ZM64.7687 182.351H65.7721L63.8104 187.988H62.9085L61.3189 183.501L59.8194 187.988H58.9175L56.9558 182.351H57.9592L59.3797 186.94L60.913 182.351H61.8149L63.3482 186.94L64.7687 182.351Z" fill="#828282"/>
<path d="M0.159645 184.606H66.0765V185.17H0.159645V184.606Z" fill="#828282"/>
<path d="M3.54188 223.108C4.12062 223.108 4.60165 223.243 4.98497 223.513C5.36829 223.777 5.66518 224.141 5.87563 224.607L5.01879 225.013C4.89854 224.652 4.71439 224.378 4.46636 224.19C4.22585 223.995 3.91017 223.897 3.51933 223.897C2.95563 223.897 2.51218 224.088 2.18899 224.472C1.87331 224.848 1.71547 225.37 1.71547 226.039C1.71547 226.708 1.87331 227.234 2.18899 227.617C2.51218 227.993 2.95563 228.181 3.51933 228.181C3.96278 228.181 4.31604 228.08 4.5791 227.877C4.84216 227.674 5.01503 227.388 5.09771 227.02L5.932 227.313C5.74409 227.831 5.44721 228.237 5.04134 228.53C4.64299 228.824 4.14317 228.97 3.54188 228.97C3.01576 228.97 2.546 228.854 2.13262 228.621C1.71923 228.388 1.39604 228.053 1.16304 227.617C0.930044 227.174 0.813544 226.648 0.813544 226.039C0.813544 225.43 0.930044 224.908 1.16304 224.472C1.39604 224.028 1.71923 223.69 2.13262 223.457C2.546 223.224 3.01576 223.108 3.54188 223.108ZM9.85055 223.108C10.3842 223.108 10.8539 223.224 11.2598 223.457C11.6732 223.69 11.9964 224.028 12.2294 224.472C12.4624 224.908 12.5789 225.43 12.5789 226.039C12.5789 226.648 12.4624 227.174 12.2294 227.617C11.9964 228.053 11.6732 228.388 11.2598 228.621C10.8539 228.854 10.3842 228.97 9.85055 228.97C9.32442 228.97 8.85467 228.854 8.44128 228.621C8.0279 228.388 7.70471 228.053 7.47171 227.617C7.23871 227.174 7.12221 226.648 7.12221 226.039C7.12221 225.43 7.23871 224.908 7.47171 224.472C7.70471 224.028 8.0279 223.69 8.44128 223.457C8.85467 223.224 9.32442 223.108 9.85055 223.108ZM9.85055 223.886C9.27933 223.886 8.83212 224.077 8.50893 224.461C8.18574 224.844 8.02414 225.37 8.02414 226.039C8.02414 226.708 8.18574 227.234 8.50893 227.617C8.83212 228.001 9.27933 228.192 9.85055 228.192C10.4218 228.192 10.869 228.001 11.1922 227.617C11.5154 227.234 11.677 226.708 11.677 226.039C11.677 225.37 11.5154 224.844 11.1922 224.461C10.869 224.077 10.4218 223.886 9.85055 223.886ZM16.4753 228.97C16.0093 228.97 15.5809 228.854 15.1901 228.621C14.7992 228.388 14.4873 228.053 14.2543 227.617C14.0213 227.174 13.9048 226.648 13.9048 226.039C13.9048 225.415 14.0288 224.885 14.2769 224.449C14.5249 224.013 14.8519 223.683 15.2577 223.457C15.6636 223.224 16.0995 223.108 16.5655 223.108C16.9714 223.108 17.3322 223.202 17.6478 223.389C17.9635 223.57 18.1965 223.818 18.3468 224.134V220.627H19.2488V228.857H18.4596L18.4032 227.798C18.2454 228.181 17.9898 228.474 17.6366 228.677C17.2833 228.872 16.8962 228.97 16.4753 228.97ZM16.5655 228.181C17.0992 228.181 17.5276 227.982 17.8508 227.583C18.1815 227.185 18.3468 226.644 18.3468 225.96C18.3468 225.314 18.1852 224.81 17.862 224.449C17.5389 224.081 17.1217 223.897 16.6106 223.897C16.0394 223.897 15.5959 224.092 15.2803 224.483C14.9646 224.874 14.8068 225.393 14.8068 226.039C14.8068 226.685 14.9608 227.204 15.269 227.595C15.5772 227.986 16.0093 228.181 16.5655 228.181ZM23.7015 228.97C23.1679 228.97 22.6906 228.854 22.2697 228.621C21.8563 228.388 21.5331 228.053 21.3001 227.617C21.0671 227.174 20.9506 226.648 20.9506 226.039C20.9506 225.43 21.0671 224.908 21.3001 224.472C21.5331 224.028 21.8526 223.69 22.2584 223.457C22.6643 223.224 23.1265 223.108 23.6451 223.108C24.1713 223.108 24.6185 223.22 24.9868 223.446C25.3626 223.671 25.6482 223.979 25.8436 224.37C26.039 224.754 26.1367 225.186 26.1367 225.667C26.1367 225.795 26.133 225.911 26.1255 226.016C26.1179 226.122 26.1067 226.216 26.0916 226.298H21.8413C21.8864 226.892 22.0705 227.354 22.3937 227.685C22.7169 228.016 23.1453 228.181 23.679 228.181C24.0924 228.181 24.4268 228.102 24.6824 227.944C24.9454 227.786 25.1559 227.572 25.3137 227.302L26.024 227.719C25.8135 228.102 25.5091 228.406 25.1108 228.632C24.7199 228.857 24.2502 228.97 23.7015 228.97ZM23.6226 223.897C23.1491 223.897 22.7582 224.04 22.4501 224.325C22.1494 224.603 21.9578 224.994 21.8751 225.498H25.2348C25.2122 224.987 25.0544 224.592 24.7613 224.314C24.4682 224.036 24.0886 223.897 23.6226 223.897ZM31.6945 228.857V223.22H32.4273L32.5513 224.145C32.867 223.453 33.4683 223.108 34.3552 223.108C34.4529 223.108 34.5581 223.115 34.6709 223.13C34.7911 223.145 34.8926 223.175 34.9753 223.22L34.8174 224.043C34.7348 224.013 34.6446 223.991 34.5469 223.976C34.4492 223.961 34.3101 223.953 34.1297 223.953C33.8967 223.953 33.66 224.021 33.4195 224.156C33.1865 224.291 32.991 224.498 32.8332 224.776C32.6754 225.047 32.5964 225.393 32.5964 225.813V228.857H31.6945ZM38.4768 228.97C37.9431 228.97 37.4659 228.854 37.045 228.621C36.6316 228.388 36.3084 228.053 36.0754 227.617C35.8424 227.174 35.7259 226.648 35.7259 226.039C35.7259 225.43 35.8424 224.908 36.0754 224.472C36.3084 224.028 36.6278 223.69 37.0337 223.457C37.4396 223.224 37.9018 223.108 38.4204 223.108C38.9465 223.108 39.3937 223.22 39.762 223.446C40.1378 223.671 40.4234 223.979 40.6189 224.37C40.8143 224.754 40.912 225.186 40.912 225.667C40.912 225.795 40.9082 225.911 40.9007 226.016C40.8932 226.122 40.8819 226.216 40.8669 226.298H36.6165C36.6616 226.892 36.8458 227.354 37.169 227.685C37.4922 228.016 37.9206 228.181 38.4542 228.181C38.8676 228.181 39.2021 228.102 39.4576 227.944C39.7207 227.786 39.9311 227.572 40.089 227.302L40.7993 227.719C40.5888 228.102 40.2844 228.406 39.886 228.632C39.4952 228.857 39.0255 228.97 38.4768 228.97ZM38.3979 223.897C37.9243 223.897 37.5335 224.04 37.2254 224.325C36.9247 224.603 36.733 224.994 36.6504 225.498H40.0101C39.9875 224.987 39.8297 224.592 39.5365 224.314C39.2434 224.036 38.8639 223.897 38.3979 223.897ZM46.2049 223.22H47.152L44.8069 228.857H43.905L41.56 223.22H42.5859L44.3672 227.944L46.2049 223.22ZM48.7814 222.138C48.5785 222.138 48.4131 222.078 48.2854 221.958C48.1651 221.83 48.105 221.665 48.105 221.462C48.105 221.259 48.1651 221.097 48.2854 220.977C48.4131 220.849 48.5785 220.785 48.7814 220.785C48.9844 220.785 49.1459 220.849 49.2662 220.977C49.394 221.097 49.4579 221.259 49.4579 221.462C49.4579 221.665 49.394 221.83 49.2662 221.958C49.1459 222.078 48.9844 222.138 48.7814 222.138ZM49.2324 223.22V228.857H48.3305V223.22H49.2324ZM53.6814 228.97C53.1478 228.97 52.6705 228.854 52.2496 228.621C51.8362 228.388 51.513 228.053 51.28 227.617C51.047 227.174 50.9305 226.648 50.9305 226.039C50.9305 225.43 51.047 224.908 51.28 224.472C51.513 224.028 51.8325 223.69 52.2383 223.457C52.6442 223.224 53.1065 223.108 53.6251 223.108C54.1512 223.108 54.5984 223.22 54.9667 223.446C55.3425 223.671 55.6281 223.979 55.8235 224.37C56.0189 224.754 56.1166 225.186 56.1166 225.667C56.1166 225.795 56.1129 225.911 56.1054 226.016C56.0979 226.122 56.0866 226.216 56.0715 226.298H51.8212C51.8663 226.892 52.0504 227.354 52.3736 227.685C52.6968 228.016 53.1252 228.181 53.6589 228.181C54.0723 228.181 54.4067 228.102 54.6623 227.944C54.9253 227.786 55.1358 227.572 55.2936 227.302L56.0039 227.719C55.7935 228.102 55.4891 228.406 55.0907 228.632C54.6999 228.857 54.2301 228.97 53.6814 228.97ZM53.6025 223.897C53.129 223.897 52.7382 224.04 52.43 224.325C52.1294 224.603 51.9377 224.994 51.855 225.498H55.2147C55.1922 224.987 55.0343 224.592 54.7412 224.314C54.4481 224.036 54.0685 223.897 53.6025 223.897ZM64.7687 223.22H65.7721L63.8104 228.857H62.9085L61.3189 224.37L59.8194 228.857H58.9175L56.9558 223.22H57.9592L59.3797 227.809L60.913 223.22H61.8149L63.3482 227.809L64.7687 223.22Z" fill="#828282"/>
<path d="M0.159645 225.475H66.0765V226.039H0.159645V225.475Z" fill="#828282"/>
<path d="M3.54188 263.976C4.12062 263.976 4.60165 264.111 4.98497 264.382C5.36829 264.645 5.66518 265.009 5.87563 265.475L5.01879 265.881C4.89854 265.52 4.71439 265.246 4.46636 265.058C4.22585 264.863 3.91017 264.765 3.51933 264.765C2.95563 264.765 2.51218 264.957 2.18899 265.34C1.87331 265.716 1.71547 266.238 1.71547 266.907C1.71547 267.576 1.87331 268.102 2.18899 268.485C2.51218 268.861 2.95563 269.049 3.51933 269.049C3.96278 269.049 4.31604 268.948 4.5791 268.745C4.84216 268.542 5.01503 268.256 5.09771 267.888L5.932 268.181C5.74409 268.7 5.44721 269.106 5.04134 269.399C4.64299 269.692 4.14317 269.838 3.54188 269.838C3.01576 269.838 2.546 269.722 2.13262 269.489C1.71923 269.256 1.39604 268.921 1.16304 268.485C0.930044 268.042 0.813544 267.516 0.813544 266.907C0.813544 266.298 0.930044 265.776 1.16304 265.34C1.39604 264.897 1.71923 264.558 2.13262 264.325C2.546 264.092 3.01576 263.976 3.54188 263.976ZM9.85055 263.976C10.3842 263.976 10.8539 264.092 11.2598 264.325C11.6732 264.558 11.9964 264.897 12.2294 265.34C12.4624 265.776 12.5789 266.298 12.5789 266.907C12.5789 267.516 12.4624 268.042 12.2294 268.485C11.9964 268.921 11.6732 269.256 11.2598 269.489C10.8539 269.722 10.3842 269.838 9.85055 269.838C9.32442 269.838 8.85467 269.722 8.44128 269.489C8.0279 269.256 7.70471 268.921 7.47171 268.485C7.23871 268.042 7.12221 267.516 7.12221 266.907C7.12221 266.298 7.23871 265.776 7.47171 265.34C7.70471 264.897 8.0279 264.558 8.44128 264.325C8.85467 264.092 9.32442 263.976 9.85055 263.976ZM9.85055 264.754C9.27933 264.754 8.83212 264.945 8.50893 265.329C8.18574 265.712 8.02414 266.238 8.02414 266.907C8.02414 267.576 8.18574 268.102 8.50893 268.485C8.83212 268.869 9.27933 269.06 9.85055 269.06C10.4218 269.06 10.869 268.869 11.1922 268.485C11.5154 268.102 11.677 267.576 11.677 266.907C11.677 266.238 11.5154 265.712 11.1922 265.329C10.869 264.945 10.4218 264.754 9.85055 264.754ZM16.4753 269.838C16.0093 269.838 15.5809 269.722 15.1901 269.489C14.7992 269.256 14.4873 268.921 14.2543 268.485C14.0213 268.042 13.9048 267.516 13.9048 266.907C13.9048 266.283 14.0288 265.753 14.2769 265.317C14.5249 264.881 14.8519 264.551 15.2577 264.325C15.6636 264.092 16.0995 263.976 16.5655 263.976C16.9714 263.976 17.3322 264.07 17.6478 264.258C17.9635 264.438 18.1965 264.686 18.3468 265.002V261.495H19.2488V269.726H18.4596L18.4032 268.666C18.2454 269.049 17.9898 269.342 17.6366 269.545C17.2833 269.741 16.8962 269.838 16.4753 269.838ZM16.5655 269.049C17.0992 269.049 17.5276 268.85 17.8508 268.452C18.1815 268.053 18.3468 267.512 18.3468 266.828C18.3468 266.182 18.1852 265.678 17.862 265.317C17.5389 264.949 17.1217 264.765 16.6106 264.765C16.0394 264.765 15.5959 264.96 15.2803 265.351C14.9646 265.742 14.8068 266.261 14.8068 266.907C14.8068 267.553 14.9608 268.072 15.269 268.463C15.5772 268.854 16.0093 269.049 16.5655 269.049ZM23.7015 269.838C23.1679 269.838 22.6906 269.722 22.2697 269.489C21.8563 269.256 21.5331 268.921 21.3001 268.485C21.0671 268.042 20.9506 267.516 20.9506 266.907C20.9506 266.298 21.0671 265.776 21.3001 265.34C21.5331 264.897 21.8526 264.558 22.2584 264.325C22.6643 264.092 23.1265 263.976 23.6451 263.976C24.1713 263.976 24.6185 264.089 24.9868 264.314C25.3626 264.539 25.6482 264.848 25.8436 265.238C26.039 265.622 26.1367 266.054 26.1367 266.535C26.1367 266.663 26.133 266.779 26.1255 266.885C26.1179 266.99 26.1067 267.084 26.0916 267.166H21.8413C21.8864 267.76 22.0705 268.222 22.3937 268.553C22.7169 268.884 23.1453 269.049 23.679 269.049C24.0924 269.049 24.4268 268.97 24.6824 268.812C24.9454 268.655 25.1559 268.44 25.3137 268.17L26.024 268.587C25.8135 268.97 25.5091 269.275 25.1108 269.5C24.7199 269.726 24.2502 269.838 23.7015 269.838ZM23.6226 264.765C23.1491 264.765 22.7582 264.908 22.4501 265.193C22.1494 265.471 21.9578 265.862 21.8751 266.366H25.2348C25.2122 265.855 25.0544 265.46 24.7613 265.182C24.4682 264.904 24.0886 264.765 23.6226 264.765ZM31.6945 269.726V264.089H32.4273L32.5513 265.013C32.867 264.322 33.4683 263.976 34.3552 263.976C34.4529 263.976 34.5581 263.983 34.6709 263.998C34.7911 264.013 34.8926 264.043 34.9753 264.089L34.8174 264.912C34.7348 264.881 34.6446 264.859 34.5469 264.844C34.4492 264.829 34.3101 264.821 34.1297 264.821C33.8967 264.821 33.66 264.889 33.4195 265.024C33.1865 265.16 32.991 265.366 32.8332 265.644C32.6754 265.915 32.5964 266.261 32.5964 266.682V269.726H31.6945ZM38.4768 269.838C37.9431 269.838 37.4659 269.722 37.045 269.489C36.6316 269.256 36.3084 268.921 36.0754 268.485C35.8424 268.042 35.7259 267.516 35.7259 266.907C35.7259 266.298 35.8424 265.776 36.0754 265.34C36.3084 264.897 36.6278 264.558 37.0337 264.325C37.4396 264.092 37.9018 263.976 38.4204 263.976C38.9465 263.976 39.3937 264.089 39.762 264.314C40.1378 264.539 40.4234 264.848 40.6189 265.238C40.8143 265.622 40.912 266.054 40.912 266.535C40.912 266.663 40.9082 266.779 40.9007 266.885C40.8932 266.99 40.8819 267.084 40.8669 267.166H36.6165C36.6616 267.76 36.8458 268.222 37.169 268.553C37.4922 268.884 37.9206 269.049 38.4542 269.049C38.8676 269.049 39.2021 268.97 39.4576 268.812C39.7207 268.655 39.9311 268.44 40.089 268.17L40.7993 268.587C40.5888 268.97 40.2844 269.275 39.886 269.5C39.4952 269.726 39.0255 269.838 38.4768 269.838ZM38.3979 264.765C37.9243 264.765 37.5335 264.908 37.2254 265.193C36.9247 265.471 36.733 265.862 36.6504 266.366H40.0101C39.9875 265.855 39.8297 265.46 39.5365 265.182C39.2434 264.904 38.8639 264.765 38.3979 264.765ZM46.2049 264.089H47.152L44.8069 269.726H43.905L41.56 264.089H42.5859L44.3672 268.812L46.2049 264.089ZM48.7814 263.006C48.5785 263.006 48.4131 262.946 48.2854 262.826C48.1651 262.698 48.105 262.533 48.105 262.33C48.105 262.127 48.1651 261.965 48.2854 261.845C48.4131 261.717 48.5785 261.653 48.7814 261.653C48.9844 261.653 49.1459 261.717 49.2662 261.845C49.394 261.965 49.4579 262.127 49.4579 262.33C49.4579 262.533 49.394 262.698 49.2662 262.826C49.1459 262.946 48.9844 263.006 48.7814 263.006ZM49.2324 264.089V269.726H48.3305V264.089H49.2324ZM53.6814 269.838C53.1478 269.838 52.6705 269.722 52.2496 269.489C51.8362 269.256 51.513 268.921 51.28 268.485C51.047 268.042 50.9305 267.516 50.9305 266.907C50.9305 266.298 51.047 265.776 51.28 265.34C51.513 264.897 51.8325 264.558 52.2383 264.325C52.6442 264.092 53.1065 263.976 53.6251 263.976C54.1512 263.976 54.5984 264.089 54.9667 264.314C55.3425 264.539 55.6281 264.848 55.8235 265.238C56.0189 265.622 56.1166 266.054 56.1166 266.535C56.1166 266.663 56.1129 266.779 56.1054 266.885C56.0979 266.99 56.0866 267.084 56.0715 267.166H51.8212C51.8663 267.76 52.0504 268.222 52.3736 268.553C52.6968 268.884 53.1252 269.049 53.6589 269.049C54.0723 269.049 54.4067 268.97 54.6623 268.812C54.9253 268.655 55.1358 268.44 55.2936 268.17L56.0039 268.587C55.7935 268.97 55.4891 269.275 55.0907 269.5C54.6999 269.726 54.2301 269.838 53.6814 269.838ZM53.6025 264.765C53.129 264.765 52.7382 264.908 52.43 265.193C52.1294 265.471 51.9377 265.862 51.855 266.366H55.2147C55.1922 265.855 55.0343 265.46 54.7412 265.182C54.4481 264.904 54.0685 264.765 53.6025 264.765ZM64.7687 264.089H65.7721L63.8104 269.726H62.9085L61.3189 265.238L59.8194 269.726H58.9175L56.9558 264.089H57.9592L59.3797 268.677L60.913 264.089H61.8149L63.3482 268.677L64.7687 264.089Z" fill="#828282"/>
<path d="M0.159645 266.343H66.0765V266.907H0.159645V266.343Z" fill="#828282"/>
<circle cx="73.2818" cy="83.5669" r="8.45559" fill="#0A56CA"/>
<circle cx="73.2818" cy="124.435" r="8.45559" fill="#0A56CA"/>
<circle cx="73.2818" cy="165.303" r="8.45559" fill="#0A56CA"/>
<circle cx="73.2818" cy="204.763" r="8.45559" fill="#0A56CA"/>
<circle cx="73.2818" cy="245.631" r="8.45559" fill="#0A56CA"/>
<circle cx="73.2818" cy="286.501" r="8.45559" fill="#0A56CA"/>
<circle cx="197.297" cy="141.346" r="8.45559" fill="#3AD293"/>
<circle cx="197.297" cy="261.134" r="8.45559" fill="#3AD293"/>
</svg>
